<svg width="35" height="33" viewBox="0 0 35 33" fill="none" xmlns="http://www.w3.org/2000/svg">
<g clip-path="url(#clip0_574_692)">
<path d="M17.5002 -0.0350342C7.83035 -0.0350342 -0.0380859 7.38172 -0.0380859 16.5C-0.0380859 25.6183 7.83035 33.0351 17.5002 33.0351C27.17 33.0351 35.0385 25.6183 35.0385 16.5C35.0385 7.38172 27.17 -0.0350342 17.5002 -0.0350342ZM17.5002 31.9337C8.47457 31.9337 1.13223 25.0099 1.13223 16.5C1.13223 7.99015 8.47457 1.06634 17.5002 1.06634C26.5258 1.06634 33.8682 7.99015 33.8682 16.5C33.8682 25.0099 26.5258 31.9337 17.5002 31.9337Z" fill="#1C303D"/>
<path d="M21.3285 7.21879H18.4104C14.6938 7.18373 14.2191 9.35245 14.2191 11.6996V13.4063H12.5785C12.5044 13.397 12.4289 13.4039 12.358 13.4265C12.2872 13.4491 12.2228 13.4868 12.1699 13.5367C12.117 13.5865 12.077 13.6472 12.053 13.7141C12.029 13.7809 12.0217 13.852 12.0316 13.9219V17.0157C12.0217 17.0856 12.029 17.1567 12.053 17.2235C12.077 17.2903 12.117 17.351 12.1699 17.4009C12.2228 17.4508 12.2872 17.4885 12.358 17.5111C12.4289 17.5337 12.5044 17.5406 12.5785 17.5313H14.2191V25.2657C14.21 25.3357 14.218 25.4068 14.2425 25.4735C14.267 25.5402 14.3073 25.6007 14.3604 25.6504C14.4134 25.7002 14.4779 25.7378 14.5487 25.7605C14.6196 25.7832 14.6951 25.7903 14.7693 25.7813H18.1107C18.4333 25.8164 18.6948 25.5699 18.5919 25.2657L18.5941 17.5313H21.3285C21.4027 17.5406 21.4781 17.5337 21.549 17.5111C21.6198 17.4885 21.6842 17.4508 21.7371 17.4009C21.79 17.351 21.83 17.2903 21.854 17.2235C21.878 17.1567 21.8853 17.0856 21.8754 17.0157V13.9219C21.8853 13.852 21.878 13.7809 21.854 13.7141C21.83 13.6472 21.79 13.5865 21.7371 13.5367C21.6842 13.4868 21.6198 13.4491 21.549 13.4265C21.4781 13.4039 21.4027 13.397 21.3285 13.4063H18.5908L18.5941 11.8594C18.7002 11.2004 18.7002 11.3077 19.3488 11.3438H21.3055C21.4576 11.3118 21.6194 11.3294 21.7332 11.2252C21.8469 11.121 21.9126 10.9787 21.8743 10.8282V7.73442C21.8844 7.66456 21.8772 7.59344 21.8534 7.52662C21.8295 7.45979 21.7897 7.39906 21.7368 7.34915C21.684 7.29925 21.6197 7.26152 21.5489 7.23891C21.478 7.2163 21.4026 7.20941 21.3285 7.21879ZM20.7433 10.2548L19.3718 10.2053C17.6732 10.2053 17.531 11.0746 17.531 11.9646L17.5266 13.9199C17.5265 13.9923 17.5415 14.064 17.5708 14.1309C17.6001 14.1978 17.6431 14.2587 17.6973 14.3099C17.7516 14.3612 17.816 14.4018 17.8869 14.4296C17.9579 14.4573 18.0339 14.4716 18.1107 14.4716H20.7816V16.4639H18.1129C17.9579 16.4639 17.8092 16.5219 17.6995 16.6252C17.5898 16.7284 17.528 16.8685 17.5277 17.0146L17.5266 24.75H15.3129V17.0157C15.3129 16.7114 15.093 16.465 14.7693 16.465H13.1254V14.4726H14.7693C14.846 14.4727 14.922 14.4586 14.993 14.431C15.0639 14.4034 15.1284 14.3628 15.1827 14.3117C15.2921 14.2076 15.3118 14.0673 15.3118 13.9209V11.6985C15.3118 9.38648 15.8073 8.2851 18.4093 8.2851H20.7423V10.2548H20.7433Z" fill="#1C303D"/>
</g>
<defs>
<clipPath id="clip0_574_692">
<rect width="35" height="33" fill="white"/>
</clipPath>
</defs>
</svg>
