<svg width="35" height="32" viewBox="0 0 35 32" fill="none" xmlns="http://www.w3.org/2000/svg">
<path fill-rule="evenodd" clip-rule="evenodd" d="M17.4872 1.43687C8.66344 1.43687 1.51993 8.14275 1.51993 16.401C1.51993 22.4648 5.37148 27.6829 10.9149 30.03C11.4949 30.2761 12.0618 30.1785 12.5048 29.865C12.7498 29.685 12.9473 29.4539 13.0818 29.1898C13.2163 28.9257 13.2841 28.6358 13.2801 28.3429V27.5591L11.3025 27.3061C11.2879 27.3043 11.2733 27.302 11.2588 27.2992C10.1688 27.0985 9.43288 26.7369 8.89369 26.2157C8.44048 25.7771 8.1636 25.2519 7.92898 24.8064L7.84737 24.651C7.63052 24.2242 7.39373 23.8067 7.13768 23.3997C6.94095 23.1055 6.78794 22.9543 6.63638 22.8594C6.25167 22.6187 5.88152 22.2104 5.88152 21.7002C5.88021 21.5534 5.91352 21.4082 5.97905 21.275C6.04458 21.1418 6.14069 21.0241 6.26041 20.9303C6.48637 20.7614 6.76797 20.6729 7.05608 20.68C7.37959 20.68 7.68416 20.7735 7.93772 20.8808C8.19711 20.9907 8.45505 21.1365 8.6955 21.2878C9.28132 21.6562 9.8584 22.0921 10.3466 22.6297C10.8552 23.188 11.2151 23.5427 11.7572 23.6156C12.2031 23.6761 12.6578 23.6775 13.0119 23.6624C13.0611 23.3978 13.1423 23.1395 13.2538 22.8924C12.8213 22.7971 12.3947 22.6796 11.9758 22.5404C11.0228 22.2214 9.96041 21.725 9.24635 20.9729C8.46234 20.1451 7.97707 19.4067 7.70602 18.5433C7.44225 17.7017 7.39853 16.7901 7.39853 15.6681C7.39853 13.9494 8.18691 12.5015 8.77856 11.7329C8.55125 11.0599 8.38788 10.3693 8.29038 9.669C8.22581 9.22739 8.2263 8.77948 8.29184 8.338C8.3647 7.93513 8.54686 7.44012 9.0263 7.14175C9.48825 6.85162 10.0304 6.864 10.453 6.93825C10.8916 7.01662 11.3477 7.1885 11.7674 7.38512C12.4509 7.70412 13.13 8.13037 13.6385 8.492C14.5158 8.24862 16.0678 7.93512 17.4711 7.90625H17.5032C18.908 7.93512 20.3901 8.24862 21.2455 8.49063C21.7555 8.13037 22.4331 7.70275 23.1151 7.38512C23.5348 7.1885 23.9895 7.01662 24.4296 6.93825C24.8522 6.864 25.3943 6.85162 25.8577 7.14037C26.3357 7.44012 26.5193 7.93513 26.5907 8.338C26.665 8.75737 26.6475 9.22625 26.5907 9.669C26.4936 10.3692 26.3308 11.0599 26.104 11.7329C26.6956 12.5029 27.484 13.9508 27.484 15.6681C27.484 16.7901 27.4403 17.7017 27.178 18.5419C26.9055 19.4081 26.4202 20.1451 25.6362 20.9729C24.9221 21.725 23.8598 22.2214 22.9067 22.5404C22.4008 22.7081 21.8839 22.8446 21.3591 22.9488C21.5384 23.4603 21.6025 23.8741 21.6025 24.112V28.3607C21.6025 29.007 21.9216 29.5584 22.3748 29.8801C22.8149 30.195 23.3804 30.2926 23.9603 30.0534C29.5562 27.7269 33.453 22.495 33.453 16.3996C33.453 8.14275 26.3124 1.43687 17.4872 1.43687ZM13.809 25.0387C13.4302 25.0896 13.8076 25.0387 13.8076 25.0387H13.8032L13.7916 25.0415L13.7493 25.047C13.5328 25.071 13.3156 25.088 13.0979 25.0979C12.6869 25.1158 12.123 25.1171 11.5445 25.0387C10.3918 24.8847 9.69081 24.1147 9.2376 23.6143L9.19388 23.5675C9.04571 23.4053 8.88653 23.2524 8.71736 23.1096C8.86746 23.3709 9.02338 23.6624 9.19097 23.9759L9.20554 24.0034L9.27986 24.1464C9.53488 24.6249 9.70247 24.9439 9.98081 25.2106C10.2519 25.4719 10.6745 25.7249 11.5284 25.8844L14.1428 26.2185C14.3253 26.2418 14.4928 26.3269 14.6139 26.4579C14.7351 26.5889 14.8017 26.7569 14.8014 26.9307V28.3429C14.8014 29.4429 14.255 30.4233 13.417 31.0173C12.9771 31.3344 12.4538 31.5323 11.9034 31.5895C11.3531 31.6466 10.7967 31.561 10.2941 31.3418C4.22898 28.7746 0 23.0588 0 16.401C0 7.337 7.83571 0 17.4872 0C27.1386 0 34.9744 7.337 34.9744 16.401C34.9744 23.0931 30.6915 28.8241 24.5739 31.3692C24.0709 31.5843 23.5154 31.6663 22.9669 31.6065C22.4184 31.5467 21.8974 31.3473 21.4597 31.0296C21.0269 30.7153 20.6772 30.3106 20.438 29.8473C20.1988 29.384 20.0767 28.8747 20.0811 28.3594V24.1106C20.0811 24.0144 20.0097 23.4589 19.6119 22.7122C19.557 22.6087 19.5293 22.4942 19.5312 22.3785C19.5331 22.2627 19.5646 22.1491 19.6229 22.0473C19.6813 21.9454 19.7648 21.8583 19.8663 21.7934C19.9679 21.7284 20.0846 21.6875 20.2064 21.6741C20.7063 21.6219 21.5486 21.4692 22.3982 21.1846C23.2638 20.8959 24.0405 20.4999 24.5025 20.0131C25.1888 19.2899 25.5313 18.7344 25.7193 18.1335C25.9145 17.5106 25.9641 16.786 25.9641 15.6681C25.9641 14.0993 25.0897 12.7806 24.6875 12.3558C24.5962 12.2597 24.534 12.1423 24.5073 12.0158C24.4807 11.8893 24.4905 11.7583 24.536 11.6366C24.74 11.0949 24.9877 10.252 25.0824 9.49988C25.1291 9.12175 25.132 8.8055 25.0912 8.57725C25.0821 8.4938 25.0553 8.41292 25.0125 8.33938C24.9122 8.32299 24.8093 8.32721 24.7108 8.35175C24.4631 8.39575 24.1469 8.50575 23.7884 8.6735C23.0743 9.00625 22.3311 9.4985 21.8706 9.8505C21.7691 9.92824 21.6479 9.97986 21.519 10.0003C21.39 10.0208 21.2576 10.0095 21.1347 9.96737C19.9548 9.6032 18.7275 9.39362 17.4872 9.3445C16.0197 9.3775 14.3264 9.77075 13.7478 9.96737C13.6249 10.0095 13.4925 10.0208 13.3636 10.0003C13.2346 9.97986 13.1135 9.92824 13.0119 9.8505C12.4164 9.39812 11.7739 9.00378 11.0942 8.6735C10.8023 8.52888 10.4917 8.42072 10.1703 8.35175C10.0723 8.32741 9.96991 8.32319 9.87006 8.33938C9.82722 8.4129 9.80046 8.49379 9.79136 8.57725C9.75056 8.8055 9.75347 9.12175 9.80011 9.49988C9.89483 10.252 10.144 11.0949 10.3466 11.6366C10.4384 11.8841 10.3816 12.1591 10.195 12.3558C9.79282 12.7806 8.91846 14.0993 8.91846 15.6681C8.91846 16.7846 8.96801 17.5106 9.16328 18.1335C9.35273 18.7344 9.69373 19.2885 10.3786 20.0131C10.8421 20.4999 11.6173 20.8959 12.4844 21.1846C13.1937 21.4215 13.9281 21.5856 14.6747 21.6741C14.8283 21.6897 14.9732 21.749 15.0902 21.8442C15.2072 21.9394 15.2907 22.0659 15.3296 22.207C15.3686 22.348 15.361 22.4969 15.3081 22.6339C15.2551 22.7708 15.1592 22.8893 15.0331 22.9735C14.7927 23.1357 14.6339 23.4273 14.545 23.7641C14.4991 23.9376 14.4717 24.1149 14.4634 24.2935V24.3196C14.4652 24.494 14.3999 24.663 14.2795 24.7953C14.1592 24.9276 13.992 25.0141 13.809 25.0387Z" fill="#1C303D"/>
</svg>
