<svg width="35" height="33" viewBox="0 0 35 33" fill="none" xmlns="http://www.w3.org/2000/svg">
<g clip-path="url(#clip0_574_700)">
<path d="M21.3444 12.3256C20.6028 12.3256 20.0538 12.5019 19.6239 12.7247C19.555 12.4937 19.3286 12.3245 19.0617 12.3751H15.798C15.4753 12.3245 15.2139 12.571 15.3134 12.8907V24.2344C15.2139 24.5232 15.4753 24.7707 15.798 24.7501H19.0617C19.3844 24.7707 19.6458 24.5232 19.6458 24.219L19.6447 17.3632C19.6436 17.3601 19.6316 17.0322 19.8514 16.8063C20.0275 16.6269 20.3305 16.5351 20.7494 16.5351C21.4472 16.5351 21.7578 16.8043 21.8738 17.4065V24.219C21.7589 24.5232 22.0203 24.7707 22.343 24.7501H25.7828C26.1055 24.7707 26.3669 24.5232 26.2509 24.219V17.1776C26.3658 13.5971 23.6609 12.3256 21.3444 12.3256ZM25.1977 23.7188H22.927V17.4065C22.927 16.1886 22.0925 15.4337 20.7505 15.4337C19.9914 15.4337 19.4008 15.6441 18.9939 16.0587C18.4284 16.6362 18.4722 17.3684 18.5936 17.5313V23.7188H16.382V13.4269H18.4777V13.7734C18.4768 13.8767 18.5068 13.978 18.5643 14.0659C18.6218 14.1537 18.7045 14.2245 18.8027 14.27C18.9009 14.3156 19.0108 14.3341 19.1197 14.3234C19.2286 14.3127 19.3321 14.2733 19.4183 14.2097L19.5714 14.0983C20.0144 13.7693 20.4727 13.428 21.3455 13.428C22.2489 13.428 25.1987 13.6992 25.1987 17.1786V23.7188H25.1977Z" fill="#1C303D"/>
<path d="M12.0313 7.18372C10.8041 7.18372 9.80664 8.12422 9.80664 9.28128C9.80664 10.4383 10.8041 11.3788 12.0313 11.3788C13.2585 11.3788 14.256 10.4383 14.256 9.28128C14.256 8.12422 13.2585 7.18372 12.0313 7.18372ZM12.0313 10.2775C11.4495 10.2775 10.9748 9.8299 10.9748 9.28128C10.9748 8.73265 11.4495 8.28509 12.0313 8.28509C12.6132 8.28509 13.0879 8.73265 13.0879 9.28128C13.0879 9.8299 12.6132 10.2775 12.0313 10.2775Z" fill="#1C303D"/>
<path d="M13.5933 12.3245H10.3471C10.0244 12.3245 9.76302 12.5709 9.84395 12.8906V24.2344C9.76302 24.5231 10.0244 24.7706 10.3471 24.75H13.5933C13.916 24.7706 14.1774 24.5231 14.1774 24.2189V12.8751C14.1774 12.7291 14.1159 12.589 14.0063 12.4858C13.8968 12.3825 13.7482 12.3245 13.5933 12.3245ZM13.1252 23.7187H10.9311V13.4269H13.1252V23.7187Z" fill="#1C303D"/>
<path d="M17.5001 -0.0350342C7.82914 -0.0350342 -0.0371094 7.38172 -0.0371094 16.5C-0.0371094 25.6183 7.82914 33.0351 17.5001 33.0351C27.171 33.0351 35.0373 25.6183 35.0373 16.5C35.0373 7.38172 27.171 -0.0350342 17.5001 -0.0350342ZM17.5001 31.9337C8.47445 31.9337 1.13102 25.0099 1.13102 16.5C1.13102 7.99015 8.47445 1.06634 17.5001 1.06634C26.5257 1.06634 33.8691 7.99015 33.8691 16.5C33.8691 25.0099 26.5257 31.9337 17.5001 31.9337Z" fill="#1C303D"/>
</g>
<defs>
<clipPath id="clip0_574_700">
<rect width="35" height="33" fill="white"/>
</clipPath>
</defs>
</svg>
