<svg width="88" height="16" viewBox="0 0 88 16" fill="none" xmlns="http://www.w3.org/2000/svg">
<path d="M12.3633 14.5625C11.9258 14.7656 11.3867 14.9531 10.7461 15.125C10.1133 15.3047 9.34766 15.3945 8.44922 15.3945C7.12109 15.3945 5.97656 15.2422 5.01562 14.9375C4.0625 14.6328 3.27734 14.1914 2.66016 13.6133C2.04297 13.0352 1.58594 12.3281 1.28906 11.4922C1 10.6562 0.855469 9.70703 0.855469 8.64453C0.855469 7.65234 1.02734 6.74609 1.37109 5.92578C1.71484 5.09766 2.21094 4.38672 2.85938 3.79297C3.51562 3.19922 4.3125 2.73828 5.25 2.41016C6.19531 2.08203 7.26953 1.91797 8.47266 1.91797C10.5977 1.91797 12.1914 2.37109 13.2539 3.27734C14.3242 4.17578 14.8594 5.51172 14.8594 7.28516C14.8594 8.09766 14.8008 8.83594 14.6836 9.5C14.5742 10.1562 14.4062 10.7188 14.1797 11.1875C13.9531 11.6484 13.6719 12.0078 13.3359 12.2656C13 12.5156 12.6094 12.6406 12.1641 12.6406C11.7344 12.6406 11.3984 12.5117 11.1562 12.2539C10.9141 11.9883 10.793 11.582 10.793 11.0352C10.6602 11.1914 10.4961 11.3555 10.3008 11.5273C10.1055 11.6914 9.87109 11.8438 9.59766 11.9844C9.32422 12.1172 9.00781 12.2305 8.64844 12.3242C8.28906 12.4102 7.88281 12.4531 7.42969 12.4531C6.76562 12.4531 6.20312 12.3594 5.74219 12.1719C5.28125 11.9844 4.90625 11.7344 4.61719 11.4219C4.33594 11.1016 4.12891 10.7344 3.99609 10.3203C3.87109 9.90625 3.80859 9.47656 3.80859 9.03125C3.80859 8.22656 3.94922 7.54297 4.23047 6.98047C4.51953 6.41797 4.88672 5.96094 5.33203 5.60938C5.78516 5.25781 6.28906 5.00391 6.84375 4.84766C7.39844 4.69141 7.94531 4.61328 8.48438 4.61328C8.85938 4.61328 9.19141 4.64062 9.48047 4.69531C9.77734 4.75 10.0312 4.82031 10.2422 4.90625C10.4609 4.98438 10.6406 5.07422 10.7812 5.17578C10.9297 5.26953 11.0469 5.35938 11.1328 5.44531C11.1719 5.25 11.2188 5.10156 11.2734 5C11.3281 4.89844 11.418 4.84766 11.543 4.84766C11.6758 4.84766 11.7812 4.90234 11.8594 5.01172C11.9453 5.11328 11.9883 5.30469 11.9883 5.58594C11.9883 5.63281 11.9844 5.72266 11.9766 5.85547C11.9766 5.98047 11.9648 6.20703 11.9414 6.53516C11.9258 6.85547 11.8984 7.30078 11.8594 7.87109C11.8203 8.44141 11.7656 9.19141 11.6953 10.1211C11.6875 10.2227 11.6758 10.3438 11.6602 10.4844C11.6523 10.625 11.6484 10.7734 11.6484 10.9297C11.6484 11.0547 11.6562 11.1797 11.6719 11.3047C11.6875 11.4219 11.7148 11.5273 11.7539 11.6211C11.793 11.7148 11.8516 11.793 11.9297 11.8555C12.0078 11.9102 12.1055 11.9375 12.2227 11.9375C12.4883 11.9375 12.7266 11.832 12.9375 11.6211C13.1562 11.4102 13.3398 11.1055 13.4883 10.707C13.6445 10.3086 13.7617 9.82031 13.8398 9.24219C13.9258 8.66406 13.9688 8.00391 13.9688 7.26172C13.9688 4.16016 12.1367 2.60938 8.47266 2.60938C7.41797 2.60938 6.47266 2.75781 5.63672 3.05469C4.80859 3.34375 4.10547 3.75391 3.52734 4.28516C2.95703 4.80859 2.51953 5.44141 2.21484 6.18359C1.91016 6.92578 1.75781 7.74609 1.75781 8.64453C1.75781 9.58984 1.875 10.4375 2.10938 11.1875C2.35156 11.9375 2.73828 12.5742 3.26953 13.0977C3.80078 13.6133 4.49219 14.0078 5.34375 14.2812C6.19531 14.5625 7.23828 14.7031 8.47266 14.7031C9.29297 14.7031 10.0039 14.6211 10.6055 14.457C11.2148 14.3008 11.7305 14.1289 12.1523 13.9414C12.207 13.9102 12.2734 13.8945 12.3516 13.8945C12.4453 13.8945 12.5156 13.9219 12.5625 13.9766C12.6094 14.0312 12.6328 14.0977 12.6328 14.1758C12.6328 14.2461 12.6094 14.3164 12.5625 14.3867C12.5234 14.4648 12.457 14.5234 12.3633 14.5625ZM11.0742 5.96094C10.7695 5.82812 10.4023 5.69922 9.97266 5.57422C9.54297 5.44922 9.07031 5.38672 8.55469 5.38672C8.08594 5.38672 7.625 5.45703 7.17188 5.59766C6.71875 5.73828 6.30859 5.95312 5.94141 6.24219C5.58203 6.53125 5.28906 6.89844 5.0625 7.34375C4.84375 7.78906 4.73438 8.31641 4.73438 8.92578C4.73438 9.84766 4.95312 10.5391 5.39062 11C5.82812 11.4531 6.52734 11.6797 7.48828 11.6797C7.87891 11.6797 8.23828 11.6367 8.56641 11.5508C8.90234 11.4648 9.20312 11.3594 9.46875 11.2344C9.73438 11.1016 9.96094 10.9688 10.1484 10.8359C10.3359 10.6953 10.4844 10.5703 10.5938 10.4609L10.8164 10.2383L11.0742 5.96094ZM34.3945 5C34.3945 5.47656 34.3242 5.89453 34.1836 6.25391C34.043 6.61328 33.8516 6.92578 33.6094 7.19141C33.375 7.45703 33.0938 7.67969 32.7656 7.85938C32.4453 8.03906 32.1016 8.1875 31.7344 8.30469C31.3672 8.41406 30.9844 8.49609 30.5859 8.55078C30.1953 8.60547 29.8125 8.64062 29.4375 8.65625L33.75 13.1914C33.8203 13.2617 33.8672 13.3359 33.8906 13.4141C33.9219 13.4844 33.9414 13.5508 33.9492 13.6133C33.9492 13.7227 33.9102 13.8164 33.832 13.8945C33.7617 13.9648 33.668 14 33.5508 14C33.4648 14 33.3711 13.9805 33.2695 13.9414C33.1758 13.9023 33.082 13.8281 32.9883 13.7188L28.2891 8.70312H23.9062V13.1094C23.9062 13.2266 23.8984 13.3398 23.8828 13.4492C23.875 13.5508 23.8555 13.6445 23.8242 13.7305C23.793 13.8086 23.7461 13.875 23.6836 13.9297C23.6289 13.9766 23.5547 14 23.4609 14C23.2344 14 23.0859 13.9141 23.0156 13.7422C22.9453 13.5625 22.9102 13.3516 22.9102 13.1094V1.37891C22.9102 1.26172 22.9102 1.17578 22.9102 1.12109C22.918 1.05859 22.9336 1.01562 22.957 0.992188C22.9805 0.96875 23.0195 0.957031 23.0742 0.957031C23.1367 0.949219 23.2266 0.945312 23.3438 0.945312H26.7422C27.4688 0.945312 28.1602 0.953125 28.8164 0.96875C29.4805 0.984375 30.0938 1.03516 30.6562 1.12109C31.2266 1.19922 31.7422 1.32422 32.2031 1.49609C32.6641 1.66016 33.0547 1.89453 33.375 2.19922C33.7031 2.49609 33.9531 2.87109 34.125 3.32422C34.3047 3.77734 34.3945 4.33594 34.3945 5ZM33.3984 5C33.3984 4.22656 33.2539 3.62109 32.9648 3.18359C32.6836 2.73828 32.2617 2.41016 31.6992 2.19922C31.1367 1.98047 30.4414 1.84766 29.6133 1.80078C28.7852 1.74609 27.8281 1.71875 26.7422 1.71875H23.9062V7.92969H28.3008C28.9805 7.92969 29.6289 7.89844 30.2461 7.83594C30.8633 7.77344 31.4023 7.64062 31.8633 7.4375C32.332 7.22656 32.7031 6.92969 32.9766 6.54688C33.2578 6.16406 33.3984 5.64844 33.3984 5ZM43.0312 1.54297C43.1562 1.31641 43.2539 1.16016 43.3242 1.07422C43.3945 0.988281 43.5 0.945312 43.6406 0.945312C43.75 0.945312 43.8438 0.988281 43.9219 1.07422C44.0078 1.15234 44.1172 1.30859 44.25 1.54297L50.7188 13.2148C50.8047 13.3711 50.8477 13.5234 50.8477 13.6719C50.8477 13.8125 50.8086 13.9219 50.7305 14C50.6523 14.0781 50.5586 14.1172 50.4492 14.1172C50.3398 14.1172 50.2305 14.0781 50.1211 14C50.0195 13.9297 49.9141 13.7969 49.8047 13.6016L47.8125 9.99219H39.4688L37.4531 13.6484C37.3672 13.8125 37.2656 13.9297 37.1484 14C37.0391 14.0781 36.9297 14.1172 36.8203 14.1172C36.6875 14.1172 36.5898 14.0703 36.5273 13.9766C36.4648 13.8828 36.4336 13.7578 36.4336 13.6016C36.4336 13.5391 36.4453 13.4766 36.4688 13.4141C36.5 13.3516 36.5352 13.2812 36.5742 13.2031L43.0312 1.54297ZM47.4727 9.30078L43.6406 2.30469L39.8086 9.30078H47.4727ZM66.5859 12.5V1.83594C66.5859 1.71875 66.5898 1.60938 66.5977 1.50781C66.6055 1.39844 66.625 1.30469 66.6562 1.22656C66.6953 1.14063 66.7461 1.07422 66.8086 1.02734C66.8789 0.972656 66.9727 0.945312 67.0898 0.945312C67.293 0.945312 67.4258 1.03516 67.4883 1.21484C67.5508 1.38672 67.582 1.59375 67.582 1.83594V13.25C67.582 13.75 67.4492 14 67.1836 14C67.0039 14 66.7812 13.8789 66.5156 13.6367L54.4336 2.44531V13.1797C54.4336 13.4062 54.3984 13.6016 54.3281 13.7656C54.2656 13.9219 54.1406 14 53.9531 14C53.7266 14 53.582 13.9219 53.5195 13.7656C53.4648 13.6016 53.4375 13.4062 53.4375 13.1797V1.70703C53.4375 1.47266 53.4805 1.29297 53.5664 1.16797C53.6523 1.04297 53.7695 0.980469 53.918 0.980469C54.1133 0.980469 54.3398 1.09766 54.5977 1.33203L66.5859 12.5ZM87.5977 7.44922C87.5977 8.69922 87.4336 9.74219 87.1055 10.5781C86.7773 11.4141 86.2891 12.0859 85.6406 12.5938C84.9922 13.1016 84.1836 13.4648 83.2148 13.6836C82.2539 13.8945 81.1367 14 79.8633 14H71.8008C71.6836 14 71.5938 14 71.5312 14C71.4766 13.9922 71.4336 13.9766 71.4023 13.9531C71.3711 13.9219 71.3516 13.8789 71.3438 13.8242C71.3438 13.7695 71.3438 13.6914 71.3438 13.5898V1.37891C71.3438 1.26172 71.3438 1.17578 71.3438 1.12109C71.3516 1.05859 71.3711 1.01562 71.4023 0.992188C71.4336 0.96875 71.4805 0.957031 71.543 0.957031C71.6133 0.949219 71.707 0.945312 71.8242 0.945312H79.8633C81.1367 0.945312 82.2539 1.05469 83.2148 1.27344C84.1836 1.49219 84.9922 1.85938 85.6406 2.375C86.2891 2.88281 86.7773 3.55078 87.1055 4.37891C87.4336 5.20703 87.5977 6.23047 87.5977 7.44922ZM86.6016 7.44922C86.6016 6.44141 86.4883 5.57812 86.2617 4.85938C86.0352 4.13281 85.6602 3.53906 85.1367 3.07812C84.6133 2.60938 83.9219 2.26562 83.0625 2.04688C82.2031 1.82812 81.1367 1.71875 79.8633 1.71875H72.3398V13.2266H79.8633C81.1367 13.2266 82.2031 13.1172 83.0625 12.8984C83.9219 12.6797 84.6133 12.3398 85.1367 11.8789C85.6602 11.4102 86.0352 10.8125 86.2617 10.0859C86.4883 9.35156 86.6016 8.47266 86.6016 7.44922Z" fill="white"/>
</svg>
