<svg width="70" height="71" viewBox="0 0 70 71" fill="none" xmlns="http://www.w3.org/2000/svg">
<circle cx="35" cy="35.7988" r="35" fill="#F4BE4F"/>
<path d="M34.6875 15.7988C23.8144 15.7988 15 24.6132 15 35.4863C15 46.3594 23.8144 55.1738 34.6875 55.1738C45.5606 55.1738 54.375 46.3594 54.375 35.4863C54.375 24.6132 45.5606 15.7988 34.6875 15.7988ZM46.7525 47.5513C43.7608 50.534 39.7659 52.2961 35.546 52.4942C31.3261 52.6923 27.1837 51.3122 23.9258 48.6229C20.6679 45.9335 18.5279 42.1276 17.9228 37.9466C17.3178 33.7657 18.291 29.5092 20.6529 26.0066C23.0147 22.504 26.596 20.0062 30.6989 18.9999C34.8018 17.9935 39.1324 18.5508 42.8469 20.563C46.5614 22.5753 49.3937 25.8984 50.7919 29.8848C52.19 33.8712 52.054 38.2354 50.4102 42.127C49.5535 44.1548 48.3113 45.997 46.7525 47.5513Z" fill="#111111"/>
<path d="M26 35.1241L27.8562 36.9803L34.0129 30.8237V46.1961H36.6379V30.8237L42.7946 36.9803L44.6508 35.1241L35.3254 25.7988L26 35.1241V35.1241Z" fill="#111111"/>
</svg>
