<svg width="33" height="33" viewBox="0 0 33 33" fill="none" xmlns="http://www.w3.org/2000/svg">
<path d="M28.1175 28.118H23.228V20.4606C23.228 18.6346 23.1954 16.284 20.6849 16.284C18.1383 16.284 17.7486 18.2736 17.7486 20.3277V28.1175H12.8592V12.3708H17.553V14.5228H17.6188C18.0885 13.7196 18.7673 13.0588 19.5829 12.6109C20.3985 12.1629 21.3203 11.9446 22.2501 11.9791C27.2059 11.9791 28.1196 15.2389 28.1196 19.4796L28.1175 28.118ZM7.34198 10.2185C5.77487 10.2187 4.50424 8.9485 4.50398 7.38138C4.50373 5.81427 5.77384 4.54364 7.34095 4.54338C8.90807 4.543 10.1787 5.81324 10.179 7.38035C10.1791 8.13291 9.88028 8.8547 9.34825 9.38695C8.81621 9.9192 8.09454 10.2183 7.34198 10.2185ZM9.78682 28.1181H4.89212V12.3708H9.78669L9.78682 28.1181ZM30.5552 0.00240177H2.43517C1.10614 -0.0125514 0.0162422 1.05209 0 2.38111V30.6184C0.0157266 31.9481 1.1055 33.0137 2.43504 32.9998H30.5552C31.8875 33.0163 32.9816 31.9507 33 30.6184V2.37892C32.9811 1.04732 31.8869 -0.017192 30.5552 0.000210361" fill="#0A66C2"/>
</svg>
