<svg width="35" height="33" viewBox="0 0 35 33" fill="none" xmlns="http://www.w3.org/2000/svg">
<path d="M21.3444 12.3254C20.6028 12.3254 20.0538 12.5018 19.6239 12.7245C19.555 12.4935 19.3286 12.3244 19.0617 12.3749H15.798C15.4753 12.3244 15.2139 12.5709 15.3134 12.8906V24.2343C15.2139 24.5231 15.4753 24.7706 15.798 24.7499H19.0617C19.3844 24.7706 19.6458 24.5231 19.6458 24.2188L19.6447 17.3631C19.6436 17.36 19.6316 17.0321 19.8514 16.8062C20.0275 16.6268 20.3305 16.535 20.7494 16.535C21.4472 16.535 21.7578 16.8042 21.8738 17.4064V24.2188C21.7589 24.5231 22.0203 24.7706 22.343 24.7499H25.7828C26.1055 24.7706 26.3669 24.5231 26.2509 24.2188V17.1775C26.3658 13.597 23.6609 12.3254 21.3444 12.3254ZM25.1977 23.7187H22.927V17.4064C22.927 16.1885 22.0925 15.4336 20.7505 15.4336C19.9914 15.4336 19.4008 15.644 18.9939 16.0586C18.4284 16.6361 18.4722 17.3683 18.5936 17.5312V23.7187H16.382V13.4268H18.4777V13.7733C18.4768 13.8765 18.5068 13.9779 18.5643 14.0657C18.6218 14.1536 18.7045 14.2243 18.8027 14.2699C18.9009 14.3155 19.0108 14.334 19.1197 14.3233C19.2286 14.3126 19.3321 14.2732 19.4183 14.2095L19.5714 14.0982C20.0144 13.7692 20.4727 13.4278 21.3455 13.4278C22.2489 13.4278 25.1987 13.6991 25.1987 17.1785V23.7187H25.1977Z" fill="#1C303D"/>
<path d="M12.0313 7.18359C10.8041 7.18359 9.80664 8.12409 9.80664 9.28116C9.80664 10.4382 10.8041 11.3787 12.0313 11.3787C13.2585 11.3787 14.256 10.4382 14.256 9.28116C14.256 8.12409 13.2585 7.18359 12.0313 7.18359ZM12.0313 10.2773C11.4495 10.2773 10.9748 9.82978 10.9748 9.28116C10.9748 8.73253 11.4495 8.28497 12.0313 8.28497C12.6132 8.28497 13.0879 8.73253 13.0879 9.28116C13.0879 9.82978 12.6132 10.2773 12.0313 10.2773Z" fill="#1C303D"/>
<path d="M13.5933 12.3245H10.3471C10.0244 12.3245 9.76302 12.5709 9.84395 12.8906V24.2344C9.76302 24.5231 10.0244 24.7706 10.3471 24.75H13.5933C13.916 24.7706 14.1774 24.5231 14.1774 24.2189V12.8751C14.1774 12.7291 14.1159 12.589 14.0063 12.4858C13.8968 12.3825 13.7482 12.3245 13.5933 12.3245ZM13.1252 23.7187H10.9311V13.4269H13.1252V23.7187Z" fill="#1C303D"/>
<path d="M17.5001 -0.0351562C7.82914 -0.0351562 -0.0371094 7.38159 -0.0371094 16.4999C-0.0371094 25.6182 7.82914 33.035 17.5001 33.035C27.171 33.035 35.0373 25.6182 35.0373 16.4999C35.0373 7.38159 27.171 -0.0351562 17.5001 -0.0351562ZM17.5001 31.9336C8.47445 31.9336 1.13102 25.0098 1.13102 16.4999C1.13102 7.99003 8.47445 1.06622 17.5001 1.06622C26.5257 1.06622 33.8691 7.99003 33.8691 16.4999C33.8691 25.0098 26.5257 31.9336 17.5001 31.9336Z" fill="#1C303D"/>
</svg>
