<svg width="556" height="255" viewBox="0 0 556 255" fill="none" xmlns="http://www.w3.org/2000/svg">
<path d="M554.903 249.375L1.91764 253.457C1.91764 253.457 43.9281 246.306 68.2253 231.72C84.757 221.795 92.4443 212.24 107.869 199.555C121.328 188.486 127.666 179.241 142.221 170.971C152.177 165.315 158.026 162.382 168.729 160.151C180.005 157.801 186.635 158.036 197.973 159.935C209.725 161.904 215.845 166.279 227.296 170.343C238.747 174.407 244.891 178.53 256.619 180.751C271.019 183.477 280.148 186.902 293.839 180.476C304.417 175.51 308.772 168.233 317.609 159.052C348.998 126.446 355.768 93.7525 380.631 52.3473C389.829 37.0298 391.693 23.4267 404.271 13.2182C414.361 5.02861 421.696 0.286442 433.437 2.3789C441.279 3.77656 445.247 7.62988 452.125 12.8649C472.015 28.0033 476.683 47.7585 489.79 72.7895C507.89 107.358 513.958 130.189 527.716 168.125C539.061 199.409 554.903 249.375 554.903 249.375Z" fill="url(#paint0_linear_368_615)" stroke="#F4BE4F"/>
<path d="M64.376 232.542C51.401 241.722 26.3174 245.801 1.93115 254.297L552.308 250.234C552.308 250.234 525.375 208.455 504.885 186.703C490.374 171.299 477.954 158.44 460.28 151.543C443.613 145.039 438.208 147.845 421.153 151.832C403.068 156.06 394.567 166.425 376.967 173.452C358.966 180.639 348.859 189.893 330.12 187.993C316.298 186.592 308.868 181.469 296.106 174.049C275.808 162.246 266.686 149.514 248.84 131.81C233.074 116.168 233.037 111.236 225.181 107.142C214.701 101.681 191.208 98.7289 175.621 107.508C160.035 116.287 118.734 175.358 118.734 175.358C118.734 175.358 77.3511 223.362 64.376 232.542Z" fill="url(#paint1_linear_368_615)" stroke="#0C9FAA"/>
<path d="M118.552 246.325C79.4771 251.624 17.568 254.342 17.568 254.342L554.902 250.375L553.802 101.328C553.802 101.328 536.821 102.931 526.273 105.166C505.321 109.606 495.034 115.624 475.889 123.716C451.703 133.938 440.368 139.104 416.373 149.604C390.352 160.99 379.242 165.64 352.264 175.525C323.802 185.955 307.594 191.365 278.971 201.515C250.348 211.664 230.75 215.927 201.057 223.903C169.707 232.324 151.167 241.902 118.552 246.325Z" fill="url(#paint2_linear_368_615)" stroke="white"/>
<defs>
<linearGradient id="paint0_linear_368_615" x1="276.576" y1="3.00351" x2="279.091" y2="343.684" gradientUnits="userSpaceOnUse">
<stop stop-color="#F4BE4F"/>
<stop offset="1" stop-color="#D9D9D9" stop-opacity="0"/>
</linearGradient>
<linearGradient id="paint1_linear_368_615" x1="277.312" y1="101.646" x2="278.884" y2="314.571" gradientUnits="userSpaceOnUse">
<stop stop-color="#0C9FAA"/>
<stop offset="1" stop-color="#D9D9D9" stop-opacity="0"/>
</linearGradient>
<linearGradient id="paint2_linear_368_615" x1="285.135" y1="103.311" x2="291.586" y2="323.249" gradientUnits="userSpaceOnUse">
<stop stop-color="#EDEDED"/>
<stop offset="1" stop-color="white" stop-opacity="0"/>
</linearGradient>
</defs>
</svg>
