<svg width="26" height="58" viewBox="0 0 26 58" fill="none" xmlns="http://www.w3.org/2000/svg">
<path d="M17.25 57.125H8.75C7.62283 57.125 6.54183 56.7167 5.7448 55.99C4.94777 55.2633 4.5 54.2777 4.5 53.25V39.6875C3.37283 39.6875 2.29183 39.2792 1.4948 38.5525C0.697767 37.8258 0.25 36.8402 0.25 35.8125V24.1875C0.25 22.6459 0.921649 21.1675 2.11719 20.0774C3.31274 18.9874 4.93425 18.375 6.625 18.375H19.375C21.0658 18.375 22.6873 18.9874 23.8828 20.0774C25.0784 21.1675 25.75 22.6459 25.75 24.1875V35.8125C25.75 36.8402 25.3022 37.8258 24.5052 38.5525C23.7082 39.2792 22.6272 39.6875 21.5 39.6875V53.25C21.5 54.2777 21.0522 55.2633 20.2552 55.99C19.4582 56.7167 18.3772 57.125 17.25 57.125ZM6.625 22.25C6.34108 22.2329 6.05643 22.2713 5.79009 22.3626C5.52376 22.4539 5.2819 22.596 5.0807 22.7795C4.8795 22.9629 4.72361 23.1834 4.62346 23.4263C4.52331 23.6691 4.48122 23.9286 4.5 24.1875V35.8125H8.75V53.25H17.25V35.8125H21.5V24.1875C21.5188 23.9286 21.4767 23.6691 21.3765 23.4263C21.2764 23.1834 21.1205 22.9629 20.9193 22.7795C20.7181 22.596 20.4762 22.4539 20.2099 22.3626C19.9436 22.2713 19.6589 22.2329 19.375 22.25H6.625ZM13 16.4375C11.3189 16.4375 9.67547 15.983 8.27765 15.1314C6.87984 14.2798 5.79037 13.0694 5.14702 11.6533C4.50368 10.2372 4.33535 8.67891 4.66332 7.17555C4.9913 5.6722 5.80085 4.29128 6.98959 3.20743C8.17834 2.12357 9.69289 1.38545 11.3417 1.08642C12.9906 0.787382 14.6996 0.940858 16.2528 1.52744C17.806 2.11402 19.1335 3.10735 20.0675 4.38183C21.0015 5.65632 21.5 7.1547 21.5 8.6875C21.5 10.7429 20.6045 12.7142 19.0104 14.1676C17.4163 15.621 15.2543 16.4375 13 16.4375ZM13 4.8125C12.1594 4.8125 11.3377 5.03977 10.6388 5.46556C9.93992 5.89135 9.39518 6.49654 9.07351 7.20461C8.75184 7.91267 8.66768 8.6918 8.83166 9.44348C8.99565 10.1952 9.40042 10.8856 9.9948 11.4275C10.5892 11.9695 11.3464 12.3385 12.1709 12.488C12.9953 12.6376 13.8498 12.5608 14.6264 12.2675C15.403 11.9742 16.0667 11.4776 16.5337 10.8403C17.0007 10.2031 17.25 9.45391 17.25 8.6875C17.25 7.65979 16.8022 6.67417 16.0052 5.94746C15.2082 5.22076 14.1272 4.8125 13 4.8125Z" fill="white"/>
</svg>
