<svg width="37" height="69" viewBox="0 0 37 69" fill="none" xmlns="http://www.w3.org/2000/svg">
<path d="M15.4216 15.92V44H8.58156V15.92H15.4216Z" fill="#F4BE4F"/>
<path d="M27.4216 15.92V44H20.5816V15.92H27.4216Z" fill="#F4BE4F"/>
<path d="M8.63513 55.032C8.63513 55.992 8.32046 56.7653 7.69113 57.352C7.06179 57.9387 6.11779 58.232 4.85913 58.232H2.60313V63H1.48313V51.816H4.85913C6.10713 51.816 7.04579 52.1093 7.67513 52.696C8.31513 53.2827 8.63513 54.0613 8.63513 55.032ZM4.85913 57.272C6.60846 57.272 7.48313 56.5253 7.48313 55.032C7.48313 54.2853 7.27513 53.72 6.85913 53.336C6.44313 52.952 5.77646 52.76 4.85913 52.76H2.60313V57.272H4.85913ZM11.0744 52.616C10.8504 52.616 10.6584 52.536 10.4984 52.376C10.3384 52.216 10.2584 52.0187 10.2584 51.784C10.2584 51.5493 10.3384 51.3573 10.4984 51.208C10.6584 51.048 10.8504 50.968 11.0744 50.968C11.2984 50.968 11.4904 51.048 11.6504 51.208C11.8104 51.3573 11.8904 51.5493 11.8904 51.784C11.8904 52.0187 11.8104 52.216 11.6504 52.376C11.4904 52.536 11.2984 52.616 11.0744 52.616ZM11.6344 54.264V63H10.5144V54.264H11.6344ZM15.2906 51.16V63H14.1706V51.16H15.2906ZM18.9469 51.16V63H17.8269V51.16H18.9469ZM20.9711 58.616C20.9711 57.72 21.1471 56.936 21.4991 56.264C21.8618 55.5813 22.3578 55.0587 22.9871 54.696C23.6271 54.3227 24.3471 54.136 25.1471 54.136C25.9791 54.136 26.6938 54.328 27.2911 54.712C27.8991 55.096 28.3365 55.5867 28.6031 56.184V54.264H29.7231V63H28.6031V61.064C28.3258 61.6613 27.8831 62.1573 27.2751 62.552C26.6778 62.936 25.9631 63.128 25.1311 63.128C24.3418 63.128 23.6271 62.9413 22.9871 62.568C22.3578 62.1947 21.8618 61.6667 21.4991 60.984C21.1471 60.3013 20.9711 59.512 20.9711 58.616ZM28.6031 58.632C28.6031 57.928 28.4591 57.3093 28.1711 56.776C27.8831 56.2427 27.4885 55.832 26.9871 55.544C26.4965 55.256 25.9525 55.112 25.3551 55.112C24.7365 55.112 24.1818 55.2507 23.6911 55.528C23.2005 55.8053 22.8111 56.2107 22.5231 56.744C22.2458 57.2667 22.1071 57.8907 22.1071 58.616C22.1071 59.3307 22.2458 59.96 22.5231 60.504C22.8111 61.0373 23.2005 61.448 23.6911 61.736C24.1818 62.0133 24.7365 62.152 25.3551 62.152C25.9525 62.152 26.4965 62.008 26.9871 61.72C27.4885 61.432 27.8831 61.0213 28.1711 60.488C28.4591 59.9547 28.6031 59.336 28.6031 58.632ZM33.4 55.816C33.6453 55.272 34.0187 54.8507 34.52 54.552C35.032 54.2533 35.656 54.104 36.392 54.104V55.272H36.088C35.2773 55.272 34.6267 55.4907 34.136 55.928C33.6453 56.3653 33.4 57.096 33.4 58.12V63H32.28V54.264H33.4V55.816Z" fill="#F4BE4F"/>
</svg>
