<svg width="37" height="68" viewBox="0 0 37 68" fill="none" xmlns="http://www.w3.org/2000/svg">
<path d="M21.4216 15.92V44H14.5816V15.92H21.4216Z" fill="#F4BE4F"/>
<path d="M8.63513 54.032C8.63513 54.992 8.32046 55.7653 7.69113 56.352C7.06179 56.9387 6.11779 57.232 4.85913 57.232H2.60313V62H1.48313V50.816H4.85913C6.10713 50.816 7.04579 51.1093 7.67513 51.696C8.31513 52.2827 8.63513 53.0613 8.63513 54.032ZM4.85913 56.272C6.60846 56.272 7.48313 55.5253 7.48313 54.032C7.48313 53.2853 7.27513 52.72 6.85913 52.336C6.44313 51.952 5.77646 51.76 4.85913 51.76H2.60313V56.272H4.85913ZM11.0744 51.616C10.8504 51.616 10.6584 51.536 10.4984 51.376C10.3384 51.216 10.2584 51.0187 10.2584 50.784C10.2584 50.5493 10.3384 50.3573 10.4984 50.208C10.6584 50.048 10.8504 49.968 11.0744 49.968C11.2984 49.968 11.4904 50.048 11.6504 50.208C11.8104 50.3573 11.8904 50.5493 11.8904 50.784C11.8904 51.0187 11.8104 51.216 11.6504 51.376C11.4904 51.536 11.2984 51.616 11.0744 51.616ZM11.6344 53.264V62H10.5144V53.264H11.6344ZM15.2906 50.16V62H14.1706V50.16H15.2906ZM18.9469 50.16V62H17.8269V50.16H18.9469ZM20.9711 57.616C20.9711 56.72 21.1471 55.936 21.4991 55.264C21.8618 54.5813 22.3578 54.0587 22.9871 53.696C23.6271 53.3227 24.3471 53.136 25.1471 53.136C25.9791 53.136 26.6938 53.328 27.2911 53.712C27.8991 54.096 28.3365 54.5867 28.6031 55.184V53.264H29.7231V62H28.6031V60.064C28.3258 60.6613 27.8831 61.1573 27.2751 61.552C26.6778 61.936 25.9631 62.128 25.1311 62.128C24.3418 62.128 23.6271 61.9413 22.9871 61.568C22.3578 61.1947 21.8618 60.6667 21.4991 59.984C21.1471 59.3013 20.9711 58.512 20.9711 57.616ZM28.6031 57.632C28.6031 56.928 28.4591 56.3093 28.1711 55.776C27.8831 55.2427 27.4885 54.832 26.9871 54.544C26.4965 54.256 25.9525 54.112 25.3551 54.112C24.7365 54.112 24.1818 54.2507 23.6911 54.528C23.2005 54.8053 22.8111 55.2107 22.5231 55.744C22.2458 56.2667 22.1071 56.8907 22.1071 57.616C22.1071 58.3307 22.2458 58.96 22.5231 59.504C22.8111 60.0373 23.2005 60.448 23.6911 60.736C24.1818 61.0133 24.7365 61.152 25.3551 61.152C25.9525 61.152 26.4965 61.008 26.9871 60.72C27.4885 60.432 27.8831 60.0213 28.1711 59.488C28.4591 58.9547 28.6031 58.336 28.6031 57.632ZM33.4 54.816C33.6453 54.272 34.0187 53.8507 34.52 53.552C35.032 53.2533 35.656 53.104 36.392 53.104V54.272H36.088C35.2773 54.272 34.6267 54.4907 34.136 54.928C33.6453 55.3653 33.4 56.096 33.4 57.12V62H32.28V53.264H33.4V54.816Z" fill="#F4BE4F"/>
</svg>
