<svg width="479" height="386" viewBox="0 0 479 386" fill="none" xmlns="http://www.w3.org/2000/svg">
<g clip-path="url(#clip0_1891_4104)">
<path d="M315.181 216.114C305.076 222.162 287.073 229.74 268.676 221.952L256.783 216.918L280.615 190.257C261.598 169.33 251.077 142.082 251.106 113.831C251.135 85.5805 261.711 58.3541 280.772 37.4667C299.832 16.5792 326.008 3.52992 354.189 0.865804C382.371 -1.79831 410.536 6.114 433.187 23.0583C455.838 40.0027 471.35 64.7629 476.693 92.506C482.037 120.249 476.829 148.984 462.087 173.102C447.345 197.219 424.127 214.989 396.964 222.942C369.801 230.895 340.643 228.461 315.181 216.114V216.114ZM269.52 113.768C269.467 126.791 272.115 139.684 277.298 151.636C282.481 163.588 290.085 174.341 299.634 183.217L306.207 189.382L291.211 206.159C299.022 204.577 305.826 200.36 309.276 197.911L314.009 194.549L319.1 197.341C333.173 205.03 348.959 209.06 365.002 209.058C417.651 209.058 460.485 166.311 460.485 113.768C460.485 61.2245 417.651 18.4772 365.002 18.4772C312.353 18.4772 269.52 61.2245 269.52 113.768V113.768Z" fill="#3F3D56"/>
<path d="M260.262 113.768C260.262 56.0376 307.155 9.23828 365.002 9.23828C422.848 9.23828 469.742 56.0376 469.742 113.768C469.742 171.498 422.848 218.297 365.002 218.297C347.396 218.323 330.071 213.899 314.642 205.438C307.402 210.579 289.739 220.834 272.29 213.447L293.294 189.95C282.853 180.187 274.533 168.387 268.851 155.282C263.169 142.177 260.245 128.047 260.262 113.768Z" fill="#FFE09F"/>
<path opacity="0.1" d="M451.901 113.994C451.901 59.3782 409.927 14.5536 356.418 9.87586C359.469 9.60915 362.555 9.46484 365.675 9.46484C423.522 9.46484 470.415 56.2642 470.415 113.994C470.415 171.724 423.522 218.523 365.675 218.523C362.56 218.523 359.479 218.377 356.433 218.111C409.935 213.427 451.901 168.605 451.901 113.994Z" fill="black"/>
<path d="M123.641 361.327C97.47 361.339 72.0898 352.374 51.7539 335.933C31.4181 319.492 17.3625 296.576 11.9428 271.023C6.52298 245.471 10.0684 218.836 21.9847 195.582C33.9011 172.328 53.4643 153.868 77.3958 143.296C101.327 132.724 128.173 130.682 153.433 137.513C178.693 144.344 200.834 159.632 216.143 180.815C231.453 201.999 239.001 227.79 237.524 253.867C236.047 279.944 225.633 304.722 208.028 324.048L231.86 350.709L219.968 355.744C201.57 363.532 183.567 355.954 173.462 349.906C157.933 357.419 140.899 361.324 123.641 361.327ZM123.641 152.268C70.992 152.268 28.1586 195.016 28.1586 247.559C28.1586 300.103 70.992 342.85 123.641 342.85C139.685 342.851 155.471 338.822 169.543 331.132L174.634 328.34L179.368 331.702C182.818 334.151 189.621 338.368 197.432 339.95L182.436 323.174L189.01 317.009C198.558 308.132 206.163 297.379 211.345 285.427C216.528 273.475 219.176 260.582 219.124 247.559C219.124 195.016 176.29 152.268 123.641 152.268Z" fill="#3F3D56"/>
<path d="M228.382 247.561C228.382 189.831 181.489 143.031 123.642 143.031C65.796 143.031 18.9023 189.831 18.9023 247.561C18.9023 305.291 65.796 352.09 123.642 352.09C141.247 352.116 158.573 347.692 174.002 339.231C181.242 344.372 198.905 354.627 216.354 347.24L195.35 323.743C205.791 313.98 214.111 302.18 219.793 289.075C225.475 275.97 228.399 261.84 228.382 247.561Z" fill="#8452A2"/>
<path opacity="0.1" d="M37.417 247.031C37.417 192.415 79.3904 147.591 132.9 142.913C129.849 142.646 126.763 142.502 123.642 142.502C65.796 142.502 18.9023 189.301 18.9023 247.031C18.9023 304.761 65.796 351.561 123.642 351.561C126.758 351.561 129.839 351.414 132.885 351.148C79.3828 346.464 37.417 301.642 37.417 247.031Z" fill="black"/>
<path d="M389.591 80.5582C382.738 69.0021 369.18 68.4635 369.18 68.4635C369.18 68.4635 355.969 66.7774 347.494 84.3775C339.594 100.782 328.692 116.621 345.739 120.462L348.818 110.897L350.724 121.174C353.152 121.348 355.586 121.389 358.018 121.298C376.274 120.71 393.659 121.47 393.099 114.932C392.355 106.242 396.185 91.6775 389.591 80.5582Z" fill="#2F2E41"/>
<path d="M344.766 181.761C344.565 183.032 344.273 184.287 343.892 185.517C343.463 186.72 342.801 187.833 342.409 189.049C341.159 192.924 342.892 197.246 345.659 200.237C348.059 202.821 351.156 204.656 354.578 205.523C357.098 206.061 359.667 206.33 362.243 206.326C369.367 206.568 376.674 206.783 383.425 204.498C385.558 203.759 387.618 202.825 389.579 201.708C390.198 201.414 390.744 200.985 391.176 200.454C391.628 199.675 391.829 198.776 391.752 197.879C391.737 194.865 391.125 191.867 391.27 188.856C391.35 187.189 391.663 185.523 391.509 183.86C391.296 181.972 390.504 180.196 389.24 178.775C387.977 177.354 386.304 176.357 384.451 175.921C382.536 175.51 380.55 175.734 378.6 175.921C373.54 176.406 368.457 176.633 363.374 176.601C358.179 176.567 353.017 175.776 347.848 175.693C346.32 175.669 346.351 176.139 345.864 177.616C345.416 178.974 345.049 180.359 344.766 181.761Z" fill="#2F2E41"/>
<path d="M359.505 107.339C359.255 108.644 358.985 109.996 358.2 111.068C357.296 112.301 355.823 113.006 354.851 114.186C353.387 115.963 353.303 118.463 353.297 120.762C353.292 122.881 353.335 125.141 354.519 126.899C355.361 127.992 356.407 128.912 357.599 129.609C362.038 132.595 366.836 135.635 372.188 135.733C374.406 135.774 376.784 135.202 378.244 133.535C378.874 132.752 379.369 131.87 379.71 130.925C381.078 127.558 381.908 123.997 382.168 120.373C382.365 118.669 382.206 116.943 381.7 115.303C381.05 113.494 379.735 112.005 378.866 110.29C377.839 108.25 377.463 105.945 377.79 103.685C377.833 103.526 377.82 103.357 377.752 103.206C377.68 103.126 377.591 103.063 377.491 103.023C377.391 102.982 377.284 102.966 377.176 102.974L366.563 102.211C365.574 102.162 364.59 102.05 363.616 101.875C363.044 101.759 361.532 100.948 360.987 101.163C359.977 101.562 359.712 106.258 359.505 107.339Z" fill="#A0616A"/>
<path opacity="0.1" d="M359.505 107.669C359.255 108.974 358.985 110.326 358.2 111.398C357.296 112.631 355.823 113.336 354.851 114.516C353.387 116.293 353.303 118.793 353.297 121.093C353.292 123.211 353.335 125.471 354.519 127.229C355.361 128.322 356.407 129.242 357.599 129.939C362.038 132.925 366.836 135.965 372.188 136.063C374.406 136.104 376.784 135.532 378.244 133.865C378.874 133.082 379.369 132.2 379.71 131.255C381.078 127.888 381.908 124.327 382.168 120.703C382.365 118.999 382.206 117.273 381.7 115.634C381.05 113.824 379.735 112.335 378.866 110.62C377.839 108.58 377.463 106.275 377.79 104.015C377.833 103.856 377.82 103.687 377.752 103.537C377.68 103.456 377.591 103.393 377.491 103.353C377.391 103.312 377.284 103.296 377.176 103.304L366.563 102.541C365.574 102.492 364.59 102.38 363.616 102.205C363.044 102.089 361.532 101.278 360.987 101.493C359.977 101.893 359.712 106.588 359.505 107.669Z" fill="black"/>
<path d="M369.657 108.76C378.257 108.76 385.229 101.802 385.229 93.2199C385.229 84.6373 378.257 77.6797 369.657 77.6797C361.058 77.6797 354.086 84.6373 354.086 93.2199C354.086 101.802 361.058 108.76 369.657 108.76Z" fill="#A0616A"/>
<path d="M361.689 128.025C362.458 128.914 363.386 129.653 364.424 130.206C365.507 130.652 366.67 130.873 367.841 130.855C370.648 130.934 373.691 130.42 375.643 128.406C378.16 125.81 378.077 121.623 380.05 118.595C380.209 118.32 380.426 118.083 380.686 117.901C381.017 117.721 381.391 117.635 381.767 117.653C384.259 117.629 386.43 119.242 388.389 120.779C389.311 121.412 390.102 122.217 390.719 123.148C391.107 123.903 391.372 124.713 391.505 125.55C392.477 130.286 392.792 135.128 393.104 139.953C393.277 142.617 393.45 145.284 393.437 147.954C393.395 156.751 391.346 165.401 389.308 173.96C389.046 175.063 388.687 176.295 387.682 176.823C387.234 177.024 386.753 177.142 386.262 177.169C380.427 177.853 374.579 178.538 368.704 178.628C366.412 178.663 364.12 178.608 361.83 178.462C361.435 178.457 361.044 178.389 360.671 178.261C360.165 178.018 359.731 177.65 359.409 177.19C356.231 173.194 356.043 167.669 356.064 162.567C356.113 150.094 356.56 137.63 357.403 125.177C357.473 124.149 357.488 122.9 356.746 122.092C358.191 124.229 359.847 126.217 361.689 128.025Z" fill="white"/>
<path d="M358.393 110.082C357.867 111.032 353.99 113.392 353.242 114.179C349.059 118.579 341.426 118.413 337.601 123.126C336.255 124.784 335.556 126.867 335.042 128.938C334.314 131.867 333.926 135.062 335.144 137.823C336.317 140.481 338.785 142.318 340.46 144.692C342.3 147.299 343.127 150.464 343.92 153.552C344.505 155.833 345.095 158.17 344.867 160.513C344.608 163.177 343.316 165.616 342.554 168.182C341.791 170.748 341.659 173.804 343.423 175.821C344.718 177.302 346.75 177.89 348.693 178.22C351.18 178.593 353.689 178.811 356.204 178.873C358.424 178.971 360.872 178.99 362.579 177.569C363.925 176.448 364.511 174.629 364.587 172.881C364.662 171.132 364.298 169.399 364.07 167.664C363.833 165.865 363.742 164.051 363.666 162.238C363.324 154.105 363.278 145.966 363.526 137.822C363.651 136.13 363.568 134.428 363.278 132.756C362.802 130.577 361.622 128.631 360.638 126.629C358.671 122.859 357.78 118.622 358.062 114.381C358.36 110.022 360.265 106.701 358.393 110.082Z" fill="white"/>
<path d="M380.257 110.413C381.058 111.235 383.78 111.506 384.799 112.035C385.757 112.477 386.758 112.822 387.785 113.067C391.502 114.137 395.037 115.756 398.274 117.871C398.946 118.264 399.541 118.776 400.028 119.383C400.541 120.216 400.872 121.148 400.998 122.118C401.497 124.584 401.999 127.081 401.887 129.595C401.768 132.263 400.962 134.847 400.163 137.397L397.178 146.922C394.949 154.033 392.706 161.213 392.079 168.636C391.732 172.751 391.887 176.892 392.539 180.969C392.6 181.167 392.618 181.376 392.592 181.582C392.566 181.788 392.497 181.986 392.388 182.163C392.191 182.357 391.933 182.476 391.657 182.499C390.216 182.724 388.822 181.991 387.516 181.342C383.526 179.36 379.267 177.97 374.875 177.214C376.591 174.738 377.916 172.014 378.801 169.136C379.304 167.309 379.7 165.454 379.988 163.581L381.376 155.565C381.941 152.635 382.339 149.675 382.568 146.7C382.673 145.583 382.608 144.457 382.374 143.36C382.054 142.317 381.629 141.308 381.106 140.349C378.817 135.597 377.743 130.175 378.644 124.98C379.038 122.707 379.804 120.43 379.484 118.145C379.177 115.948 379.496 114.241 378.932 112.067C376.613 103.139 378.75 108.867 380.257 110.413Z" fill="white"/>
<path d="M337.562 130.639C336.518 132.8 334.774 134.641 334.18 136.965C333.949 138.051 333.85 139.162 333.885 140.272C333.782 141.944 333.948 143.623 334.377 145.244C334.708 146.269 335.247 147.214 335.636 148.219C336.177 149.623 336.418 151.124 336.344 152.627C336.239 154.708 335.53 156.729 335.475 158.812C335.388 162.089 336.906 165.169 338.388 168.094C338.761 167.172 339.331 166.343 340.059 165.664C340.786 164.985 341.654 164.474 342.6 164.164C343.547 163.855 344.55 163.756 345.539 163.874C346.528 163.992 347.479 164.324 348.326 164.847C348.665 164.431 348.826 163.898 348.774 163.364C348.883 159.563 348.989 155.762 349.091 151.961C349.251 146.082 349.404 140.124 348.049 134.4C347.437 131.816 346.485 129.242 344.74 127.237C343.821 126.182 340.701 123.402 339.192 124.584C338.514 125.116 338.673 126.563 338.565 127.296C338.403 128.455 338.064 129.582 337.562 130.639Z" fill="white"/>
<path d="M402.194 124.411C402.613 125.969 402.793 127.582 402.726 129.194C402.746 132.48 402.703 135.766 402.595 139.051C402.612 140.736 402.396 142.415 401.954 144.041C401.617 145.098 401.097 146.09 400.749 147.144C399.706 150.303 400.276 153.729 400.365 157.053C400.428 158.129 400.336 159.209 400.092 160.258C399.542 162.319 398.062 163.985 397.03 165.852C396.05 167.626 395.458 169.614 394.287 171.268C393.116 172.923 391.089 174.234 389.124 173.726C387.635 173.341 386.577 172.026 385.845 170.676C384.249 167.708 383.703 164.289 384.296 160.972C385.03 156.937 387.405 153.358 388.262 149.347C389.438 143.839 387.65 138.155 387.703 132.524C387.679 131.641 387.799 130.76 388.059 129.916C388.508 128.629 389.473 127.602 390.364 126.571C391.478 125.281 392.513 123.926 393.463 122.512C394.101 121.562 394.968 119.12 396.099 118.916C398.625 118.463 401.567 122.463 402.194 124.411Z" fill="white"/>
<path d="M324.455 179.312C323.058 178.962 321.619 178.809 320.18 178.859C318.667 178.942 317.19 179.346 315.846 180.043C314.502 180.741 313.322 181.715 312.385 182.903C311.448 184.09 310.775 185.464 310.411 186.931C310.047 188.398 309.999 189.926 310.273 191.413C310.621 193.023 311.192 194.578 311.967 196.033C313.101 198.329 314.461 200.62 316.56 202.092C317.824 202.901 319.186 203.548 320.613 204.017L331.668 208.174C333.295 208.785 334.921 209.397 336.564 209.964C344.815 212.81 353.418 214.517 362.133 215.037C364.785 215.285 367.459 215.15 370.072 214.635C370.704 214.553 371.283 214.241 371.698 213.759C371.909 213.392 372.033 212.983 372.061 212.561L372.742 207.808C372.894 207.146 372.874 206.457 372.684 205.805C372.372 205.006 371.591 204.503 370.846 204.077C363.578 199.911 355.092 197.612 348.974 191.894C347.534 190.548 346.329 188.415 344.579 187.5C342.595 186.463 340.258 185.872 338.207 184.916C333.723 182.827 329.314 180.427 324.455 179.312Z" fill="#2F2E41"/>
<path opacity="0.1" d="M335.489 185.719C339.397 186.941 355.895 195.407 358.723 198.363C358.344 198.499 345.483 191.306 345.097 191.191C341.56 190.221 338.096 189.003 334.731 187.545C334.061 187.236 330.378 185.782 330.545 184.938C330.733 183.986 334.796 185.502 335.489 185.719Z" fill="black"/>
<path d="M384.242 217.502C384.464 217.518 384.684 217.454 384.861 217.32C384.939 217.22 384.996 217.106 385.03 216.984C385.063 216.862 385.072 216.734 385.055 216.609L385.037 210.134C383.171 209.247 381.084 208.962 379.036 208.689L369.478 207.414C369.697 207.443 367.983 211.522 368.246 212.067C368.709 213.027 372.249 213.877 373.248 214.331C376.721 215.906 380.33 217.638 384.242 217.502Z" fill="#A0616A"/>
<path d="M354.254 210.11C352.449 210.396 350.435 210.65 349.266 212.052C347.784 213.83 348.415 216.48 349.122 218.683C349.165 218.967 349.265 219.239 349.415 219.485C349.566 219.73 349.764 219.942 349.999 220.109C350.233 220.277 350.498 220.395 350.78 220.458C351.061 220.521 351.351 220.527 351.635 220.476C353.281 220.58 355.032 220.662 356.47 219.856C357.121 219.427 357.748 218.962 358.348 218.463C359.409 217.759 360.574 217.227 361.802 216.887C364.058 216.179 366.381 215.701 368.734 215.462C369.661 215.419 370.579 215.258 371.464 214.981C371.907 214.839 372.311 214.597 372.644 214.274C372.978 213.95 373.232 213.555 373.388 213.118C373.721 211.941 373.035 210.741 372.378 209.709C371.621 208.358 370.638 207.145 369.471 206.124C367.69 204.743 366.809 205.803 365.016 206.687C361.62 208.359 357.992 209.513 354.254 210.11Z" fill="#A0616A"/>
<path d="M349.537 211.732L338.078 208.352C336.704 207.875 335.268 207.597 333.814 207.528C333.086 207.498 332.361 207.624 331.685 207.896C331.01 208.169 330.401 208.582 329.898 209.108C329.01 210.149 328.755 211.571 328.534 212.921L328.06 215.807C327.744 217.262 327.655 218.757 327.795 220.239C327.871 220.981 328.116 221.695 328.51 222.327C328.905 222.96 329.438 223.495 330.071 223.891C331.657 224.754 333.6 224.332 335.37 223.971C338.944 223.242 342.58 222.853 346.228 222.809C347.6 222.793 349.038 222.81 350.25 222.169C350.954 221.753 351.545 221.171 351.972 220.475C352.399 219.779 352.649 218.99 352.701 218.175C352.927 215.71 352.103 212.489 349.537 211.732Z" fill="#2F2E41"/>
<path d="M388.743 208.787C390.229 208.527 391.54 207.685 392.963 207.187C394.967 206.487 397.138 206.488 399.26 206.495C400.041 206.424 400.825 206.581 401.518 206.946C402.453 207.568 402.693 208.811 402.852 209.921L403.811 216.616C404.067 217.865 404.094 219.15 403.889 220.409C403.608 221.65 402.76 222.846 401.527 223.166C400.028 223.555 398.559 222.6 397.145 221.972C393.609 220.404 389.498 220.805 385.811 219.632C385.459 219.562 385.125 219.418 384.833 219.209C384.541 219 384.296 218.732 384.115 218.422C383.989 218.05 383.944 217.656 383.983 217.265C384.046 215.113 383.592 212.174 384.241 210.117C384.825 208.268 387.085 208.787 388.743 208.787Z" fill="#2F2E41"/>
<path d="M412.991 176.618C415.281 176.045 417.655 175.883 420.001 176.14C421.875 176.346 423.806 176.866 425.174 178.161C426.839 179.736 427.374 182.173 427.419 184.462C427.492 189.023 425.976 193.467 423.131 197.036C422.436 197.938 421.61 198.732 420.679 199.391C419.676 200.017 418.606 200.532 417.49 200.925L392.732 210.67C386.219 213.234 379.683 215.805 372.889 217.496C372.703 217.585 372.501 217.637 372.295 217.647C372.089 217.658 371.883 217.627 371.69 217.557C371.496 217.486 371.318 217.378 371.166 217.239C371.015 217.099 370.893 216.93 370.808 216.743C368.639 213.65 366.819 210.328 365.382 206.837C365.314 206.754 365.267 206.656 365.245 206.551C365.223 206.446 365.226 206.337 365.255 206.234C365.284 206.13 365.338 206.036 365.411 205.957C365.485 205.879 365.576 205.82 365.677 205.784L383.189 195.743C384.473 195.074 385.67 194.251 386.753 193.292C387.51 192.56 388.13 191.699 388.583 190.749C388.946 189.993 388.98 188.207 389.443 187.648C389.897 187.1 391.45 187.057 392.167 186.841C393.179 186.532 394.17 186.158 395.133 185.723C399.05 183.974 402.538 181.433 406.294 179.385C408.4 178.183 410.65 177.253 412.991 176.618Z" fill="#2F2E41"/>
<path opacity="0.1" d="M403.065 184.115C400.056 186.37 396.161 188.443 393.179 190.757C392.161 191.547 375.197 201.066 374.957 202.33C377.739 202.798 395.459 190.426 397.995 189.191C400.53 187.957 402.778 186.216 405.005 184.488C405.572 184.047 407.978 182.723 406.348 182.231C405.43 181.954 403.742 183.664 403.065 184.115Z" fill="black"/>
<path d="M382.363 110.631H355.954C354.881 110.631 353.852 111.056 353.093 111.813C352.334 112.571 351.908 113.597 351.908 114.668V116.147H351.621V119.453H351.908V121.768H351.621V123.752H351.908V148.148C351.908 149.219 352.334 150.246 353.093 151.003C353.852 151.76 354.881 152.186 355.954 152.186H382.363C383.436 152.186 384.465 151.76 385.224 151.003C385.982 150.246 386.408 149.219 386.408 148.148V114.668C386.408 113.597 385.982 112.571 385.223 111.813C384.465 111.056 383.436 110.631 382.363 110.631Z" fill="#D0CDE1"/>
<path d="M386.563 79.4458L373.168 72.4434L354.671 75.308L350.844 92.1769L360.37 91.8108L363.032 85.6137V91.7091L367.427 91.5404L369.979 81.6733L371.574 92.1769L387.201 91.8584L386.563 79.4458Z" fill="#2F2E41"/>
<path d="M341.064 174.431C341.67 175.459 342.531 176.314 343.564 176.914C344.242 177.223 344.982 177.373 345.727 177.353C346.471 177.333 347.202 177.144 347.862 176.799C349.181 176.093 350.26 175.013 350.964 173.695C352.42 171.13 352.721 168.06 352.54 165.117C352.358 162.175 351.728 159.277 351.45 156.342C351.247 154.208 351.231 152.062 351.214 149.919C351.164 149.468 351.259 149.013 351.485 148.62C351.874 148.234 352.377 147.983 352.921 147.904C355.859 147.033 357.809 144.285 359.207 141.563C360.141 139.745 360.952 137.758 360.772 135.724C360.592 133.689 359.127 131.64 357.091 131.432C355.413 131.261 353.863 132.325 352.652 133.498C349.598 136.475 347.635 140.39 347.078 144.614C346.813 146.683 346.889 148.808 346.325 150.816C345.121 155.104 341.355 157.733 339.478 161.591C337.41 165.843 338.551 170.67 341.064 174.431Z" fill="#A0616A"/>
<path d="M396.491 158.05C396.062 159.044 395.439 159.943 394.656 160.693C393.874 161.443 392.95 162.029 391.937 162.416C390.678 162.921 389.289 163.006 387.978 162.658C387.328 162.478 386.728 162.151 386.225 161.702C385.722 161.253 385.33 160.694 385.078 160.07C384.878 159.44 384.768 158.785 384.752 158.125C384.563 155.234 384.636 152.254 385.689 149.553C386.095 148.511 386.642 147.524 386.962 146.453C387.277 145.216 387.438 143.945 387.442 142.669L387.788 134.779C387.845 134.206 387.805 133.628 387.67 133.068C387.325 131.926 386.256 131.185 385.275 130.504C382.906 128.86 380.565 126.941 379.417 124.299C379.023 123.503 378.881 122.607 379.012 121.729C379.336 120.162 380.92 119.148 382.486 118.806C383.511 118.582 384.57 118.568 385.6 118.764C386.631 118.96 387.61 119.362 388.481 119.946C389.351 120.53 390.094 121.283 390.665 122.161C391.236 123.04 391.622 124.024 391.802 125.055C391.957 125.945 391.955 126.855 392.045 127.754C392.238 129.661 392.844 131.5 393.224 133.379C394.159 138.008 393.674 142.793 394.599 147.421C395.372 151.291 398.287 153.816 396.491 158.05Z" fill="#A0616A"/>
<path d="M369.512 128.38C371.342 128.38 372.825 126.9 372.825 125.074C372.825 123.248 371.342 121.768 369.512 121.768C367.683 121.768 366.199 123.248 366.199 125.074C366.199 126.9 367.683 128.38 369.512 128.38Z" fill="#6C63FF"/>
<path d="M9.77316 243.907C15.1707 243.907 19.5463 239.541 19.5463 234.154C19.5463 228.767 15.1707 224.4 9.77316 224.4C4.37559 224.4 0 228.767 0 234.154C0 239.541 4.37559 243.907 9.77316 243.907Z" fill="#2F2E41"/>
<path d="M45.2019 263.109L40.2793 258.334L30.3945 261.398L31.3439 272.821L51.6684 271.879L45.4246 263.412L45.2019 263.109Z" fill="#FBBEBE"/>
<path d="M34.4333 263.01C43.1597 263.01 50.2339 255.95 50.2339 247.241C50.2339 238.533 43.1597 231.473 34.4333 231.473C25.707 231.473 18.6328 238.533 18.6328 247.241C18.6328 255.95 25.707 263.01 34.4333 263.01Z" fill="#FBBEBE"/>
<path d="M132.526 283.348C132.526 283.348 151.937 316.639 156.557 321.637C158.754 324.097 161.094 326.425 163.566 328.609C163.566 328.609 161.394 335.798 157.935 335.542C155.964 335.423 154.03 334.948 152.229 334.138C152.229 334.138 150.686 330.144 147.993 328.393C145.3 326.641 123.299 305.041 123.814 298.137C124.328 291.233 132.526 283.348 132.526 283.348Z" fill="#2F2E41"/>
<path d="M63.3945 330.857C63.3945 330.857 84.0913 346.889 112.219 331.825L114.643 330.044C114.643 330.044 110.552 339.229 110.173 341.718C109.733 344.606 99.0823 361.518 97.3443 362.328C95.6064 363.138 95.2234 363.886 95.2234 363.886L102.599 371.987L105.326 369.984C105.326 369.984 115.959 354.95 119.069 352.199C122.179 349.449 136.996 321.086 136.996 321.086C136.996 321.086 142.662 310.399 128.523 309.595C114.385 308.791 107.879 312.637 107.879 312.637L82.7864 316.615L63.3945 330.857Z" fill="#2F2E41"/>
<path d="M163.804 327.035L174.272 334.264C174.272 334.264 187.628 338.44 179.401 341.219C171.174 343.998 149.495 345.003 149.003 341.169C148.511 337.335 149.858 331.3 150.939 331.63C152.021 331.96 159.528 333.905 163.804 327.035Z" fill="#2F2E41"/>
<path d="M106.252 367.5L108.19 378.119C108.19 378.119 113.699 388.635 107.084 385.372C100.469 382.109 86.8405 369.715 88.853 367.117C90.8656 364.519 95.3074 361.701 95.7585 362.548C96.2096 363.395 99.5482 369.064 106.252 367.5Z" fill="#2F2E41"/>
<path d="M86.2907 320.101C86.2907 320.101 72.2216 336.494 63.68 332.512C55.1384 328.53 20.1931 282.407 24.1833 273.883C28.1734 265.358 29.5113 267.173 29.5113 267.173L47.5547 268.838L42.3631 260.531C42.3631 260.531 44.7871 258.75 47.097 261.249C49.4068 263.748 58.6803 269.99 61.9109 278.805C65.1415 287.62 74.6262 287.18 74.6262 287.18L86.2907 320.101Z" fill="#0C9FAA"/>
<path d="M143.106 286.298L118.718 312.134L96.8711 273.639L117.64 248.596L143.106 286.298Z" fill="#3F3D56"/>
<path d="M141.265 286.019L119.238 308.722L99.2773 273.736L117.583 250.736L141.265 286.019Z" fill="white"/>
<path d="M117.523 311.146L118.718 312.133L117.952 313.628L83.8498 323.758L83.5273 322.592L85.0788 320.99L117.523 311.146Z" fill="#B3B3B3"/>
<path d="M119.021 311.911L83.7066 322.93L62.1797 282.335L96.8704 273.639L119.021 311.911Z" fill="#D0CDE1"/>
<path d="M116.365 306.406L114.85 307.518L98.0352 278.38L99.773 277.57L116.365 306.406Z" fill="#3F3D56"/>
<path d="M112.889 308.026L97.9504 312.472L80.9922 282.507L95.7708 279.111L112.889 308.026Z" fill="#3F3D56"/>
<path d="M70.8043 285.794L73.8972 284.921C73.8972 284.921 91.1457 282.975 91.3975 288.383C91.6493 293.792 71.582 291.283 71.582 291.283L68.9062 287.654L70.8043 285.794Z" fill="#FBBEBE"/>
<path d="M85.9318 310.11L90.2367 308.347C90.2367 308.347 103.231 302.532 99.5037 298.744C95.776 294.956 84.2791 301.535 84.2791 301.535L82.0781 303.617L85.9318 310.11Z" fill="#FBBEBE"/>
<path d="M82.0957 301.74C82.0957 301.74 89.1052 308.712 87.5102 310.349C85.9152 311.987 59.7604 333.527 53.2768 326.635C46.7932 319.742 15.2045 285.139 27.4962 282.172C39.7879 279.204 43.0355 286.142 43.0355 286.142L59.262 313.848L82.0957 301.74Z" fill="#0C9FAA"/>
<path d="M61.1052 280.561L72.6195 284.457L72.4315 292.753L60.2539 291.442L61.1052 280.561Z" fill="#0C9FAA"/>
<path opacity="0.2" d="M71.4858 306.038L59.0802 313.284L44.9062 291.529L58.5881 309.45L71.4858 306.038Z" fill="black"/>
<path d="M27.4977 261.443C37.8862 261.443 46.3078 253.038 46.3078 242.671C46.3078 232.303 37.8862 223.898 27.4977 223.898C17.1091 223.898 8.6875 232.303 8.6875 242.671C8.6875 253.038 17.1091 261.443 27.4977 261.443Z" fill="#2F2E41"/>
<path d="M129.136 287.936L115.965 268.708L121.548 261.811L135.234 281.593L129.136 287.936Z" fill="#6C63FF"/>
<path d="M128.762 295.667L108.711 266.575L109.7 265.383L129.657 294.543L128.762 295.667Z" fill="#E6E6E6"/>
<path d="M126.18 298.497L106.129 269.405L107.118 268.213L127.075 297.374L126.18 298.497Z" fill="#E6E6E6"/>
<path d="M123.977 300.579L103.926 271.487L104.915 270.295L124.872 299.456L123.977 300.579Z" fill="#E6E6E6"/>
<path d="M35.8281 230.139H41.647C44.5933 230.139 47.4188 231.307 49.5021 233.386C51.5854 235.465 52.7558 238.285 52.7558 241.225H35.8281V230.139Z" fill="#2F2E41"/>
<path d="M115.985 223.082L114.93 223.004C114.889 223.551 114.86 224.102 114.825 224.651L110.09 224.493L115.057 233.782L120.635 224.845L115.882 224.686C115.916 224.152 115.945 223.616 115.985 223.082Z" fill="#3F3D56"/>
<path d="M143.754 147.37L144.595 148.011C145.856 146.362 147.174 144.716 148.511 143.118L147.699 142.441C146.352 144.051 145.025 145.709 143.754 147.37Z" fill="#3F3D56"/>
<path d="M151.859 137.691L152.64 138.403C154.044 136.869 155.501 135.346 156.971 133.874L156.222 133.129C154.741 134.611 153.273 136.146 151.859 137.691Z" fill="#3F3D56"/>
<path d="M160.781 128.762L161.497 129.54C163.032 128.133 164.617 126.744 166.207 125.41L165.527 124.602C163.924 125.945 162.328 127.345 160.781 128.762Z" fill="#3F3D56"/>
<path d="M136.535 157.728L137.429 158.292C138.541 156.536 139.709 154.78 140.9 153.072L140.031 152.469C138.832 154.19 137.655 155.959 136.535 157.728Z" fill="#3F3D56"/>
<path d="M170.449 120.655L171.093 121.492C172.747 120.225 174.447 118.981 176.148 117.793L175.542 116.928C173.828 118.125 172.114 119.378 170.449 120.655Z" fill="#3F3D56"/>
<path d="M130.258 168.687L131.199 169.169C132.152 167.32 133.16 165.466 134.194 163.661L133.275 163.137C132.233 164.956 131.218 166.823 130.258 168.687Z" fill="#3F3D56"/>
<path d="M120.053 198.406L119.029 198.143C118.506 200.168 118.022 202.234 117.59 204.283L118.625 204.501C119.054 202.467 119.534 200.416 120.053 198.406Z" fill="#3F3D56"/>
<path d="M180.793 113.429L181.361 114.32C183.114 113.206 184.917 112.117 186.72 111.081L186.192 110.166C184.376 111.209 182.559 112.307 180.793 113.429Z" fill="#3F3D56"/>
<path d="M117.47 210.654L116.426 210.482C116.086 212.544 115.788 214.644 115.539 216.725L116.59 216.85C116.836 214.785 117.133 212.7 117.47 210.654Z" fill="#3F3D56"/>
<path d="M124.977 180.164L125.957 180.561C126.741 178.634 127.58 176.698 128.451 174.806L127.489 174.365C126.612 176.271 125.767 178.222 124.977 180.164Z" fill="#3F3D56"/>
<path d="M120.738 192.073L121.75 192.381C122.36 190.389 123.023 188.384 123.721 186.423L122.724 186.07C122.021 188.046 121.353 190.065 120.738 192.073Z" fill="#3F3D56"/>
<path d="M252.36 92.3847C254.434 92.3131 256.546 92.2845 258.635 92.304L258.645 91.2482C256.541 91.2286 254.413 91.2572 252.324 91.3294L252.36 92.3847Z" fill="#3F3D56"/>
<path d="M191.73 107.147L192.217 108.084C194.065 107.129 195.956 106.203 197.839 105.333L197.394 104.375C195.497 105.252 193.592 106.185 191.73 107.147Z" fill="#3F3D56"/>
<path d="M277.395 93.7018C279.458 93.9933 281.541 94.3346 283.585 94.7164L283.78 93.6786C281.72 93.294 279.622 92.9499 277.542 92.6562L277.395 93.7018Z" fill="#3F3D56"/>
<path d="M289.727 96.0026C291.753 96.4749 293.797 96.9997 295.803 97.5624L296.089 96.5458C294.069 95.9789 292.009 95.4505 289.967 94.9746L289.727 96.0026Z" fill="#3F3D56"/>
<path d="M301.801 99.3914C303.776 100.042 305.766 100.746 307.713 101.485L308.089 100.498C306.127 99.7536 304.123 99.0439 302.132 98.3887L301.801 99.3914Z" fill="#3F3D56"/>
<path d="M264.906 92.4957C266.99 92.6047 269.095 92.7615 271.164 92.961L271.266 91.9103C269.182 91.709 267.06 91.5512 264.962 91.4414L264.906 92.4957Z" fill="#3F3D56"/>
<path d="M239.73 92.3174L239.86 93.3655C241.921 93.1123 244.021 92.9012 246.099 92.7383L246.016 91.6855C243.922 91.8498 241.807 92.0624 239.73 92.3174Z" fill="#3F3D56"/>
<path d="M215.047 97.5999L215.36 98.6083C217.348 97.994 219.377 97.4161 221.391 96.8905L221.123 95.8691C219.094 96.3984 217.05 96.9807 215.047 97.5999Z" fill="#3F3D56"/>
<path d="M203.172 101.856L203.574 102.833C205.497 102.045 207.462 101.291 209.414 100.591L209.056 99.5977C207.089 100.302 205.11 101.062 203.172 101.856Z" fill="#3F3D56"/>
<path d="M227.273 94.4091L227.495 95.4417C229.528 95.0069 231.6 94.6112 233.655 94.266L233.479 93.2246C231.409 93.5726 229.321 93.9711 227.273 94.4091Z" fill="#3F3D56"/>
<path d="M323.499 108.013L317.587 99.293L315.508 103.564C315.005 103.339 314.505 103.11 314.002 102.893L313.581 103.862C314.072 104.074 314.558 104.296 315.046 104.514L312.977 108.764L323.499 108.013Z" fill="#3F3D56"/>
</g>
<defs>
<clipPath id="clip0_1891_4104">
<rect width="479" height="386" fill="white"/>
</clipPath>
</defs>
</svg>
