<svg width="121" height="35" viewBox="0 0 121 35" fill="none" xmlns="http://www.w3.org/2000/svg">
<path d="M12.592 34.336C10.352 34.336 8.336 33.952 6.544 33.184C4.752 32.384 3.344 31.264 2.32 29.824C1.296 28.384 0.784 26.704 0.784 24.784H6.64C6.768 26.224 7.328 27.408 8.32 28.336C9.344 29.264 10.768 29.728 12.592 29.728C14.48 29.728 15.952 29.28 17.008 28.384C18.064 27.456 18.592 26.272 18.592 24.832C18.592 23.712 18.256 22.8 17.584 22.096C16.944 21.392 16.128 20.848 15.136 20.464C14.176 20.08 12.832 19.664 11.104 19.216C8.928 18.64 7.152 18.064 5.776 17.488C4.432 16.88 3.28 15.952 2.32 14.704C1.36 13.456 0.88 11.792 0.88 9.712C0.88 7.792 1.36 6.112 2.32 4.672C3.28 3.232 4.624 2.128 6.352 1.36C8.08 0.591998 10.08 0.207997 12.352 0.207997C15.584 0.207997 18.224 1.024 20.272 2.656C22.352 4.256 23.504 6.464 23.728 9.28H17.68C17.584 8.064 17.008 7.024 15.952 6.16C14.896 5.296 13.504 4.864 11.776 4.864C10.208 4.864 8.928 5.264 7.936 6.064C6.944 6.864 6.448 8.016 6.448 9.52C6.448 10.544 6.752 11.392 7.36 12.064C8 12.704 8.8 13.216 9.76 13.6C10.72 13.984 12.032 14.4 13.696 14.848C15.904 15.456 17.696 16.064 19.072 16.672C20.48 17.28 21.664 18.224 22.624 19.504C23.616 20.752 24.112 22.432 24.112 24.544C24.112 26.24 23.648 27.84 22.72 29.344C21.824 30.848 20.496 32.064 18.736 32.992C17.008 33.888 14.96 34.336 12.592 34.336ZM55.8168 10.576C55.8168 12.272 55.4168 13.872 54.6168 15.376C53.8168 16.88 52.5368 18.112 50.7768 19.072C49.0168 20 46.7608 20.464 44.0088 20.464H37.9608V34H32.4888V0.639997H44.0088C46.5688 0.639997 48.7288 1.088 50.4888 1.984C52.2808 2.848 53.6088 4.032 54.4728 5.536C55.3688 7.04 55.8168 8.72 55.8168 10.576ZM44.0088 16C46.0888 16 47.6408 15.536 48.6648 14.608C49.6888 13.648 50.2008 12.304 50.2008 10.576C50.2008 6.928 48.1368 5.104 44.0088 5.104H37.9608V16H44.0088ZM68.4276 5.056V14.848H79.9476V19.312H68.4276V29.536H81.3876V34H62.9556V0.591998H81.3876V5.056H68.4276ZM88.2235 17.248C88.2235 13.984 88.9755 11.056 90.4795 8.464C92.0155 5.872 94.0795 3.856 96.6715 2.416C99.2955 0.943997 102.16 0.207997 105.264 0.207997C108.816 0.207997 111.968 1.088 114.72 2.848C117.504 4.576 119.52 7.04 120.768 10.24H114.192C113.328 8.48 112.128 7.168 110.592 6.304C109.056 5.44 107.28 5.008 105.264 5.008C103.056 5.008 101.088 5.504 99.3595 6.496C97.6315 7.488 96.2715 8.912 95.2795 10.768C94.3195 12.624 93.8395 14.784 93.8395 17.248C93.8395 19.712 94.3195 21.872 95.2795 23.728C96.2715 25.584 97.6315 27.024 99.3595 28.048C101.088 29.04 103.056 29.536 105.264 29.536C107.28 29.536 109.056 29.104 110.592 28.24C112.128 27.376 113.328 26.064 114.192 24.304H120.768C119.52 27.504 117.504 29.968 114.72 31.696C111.968 33.424 108.816 34.288 105.264 34.288C102.128 34.288 99.2635 33.568 96.6715 32.128C94.0795 30.656 92.0155 28.624 90.4795 26.032C88.9755 23.44 88.2235 20.512 88.2235 17.248Z" fill="#FEFFFF"/>
</svg>
