<svg width="169" height="32" viewBox="0 0 169 32" fill="none" xmlns="http://www.w3.org/2000/svg">
<path d="M10.2205 31.28C8.35388 31.28 6.67388 30.96 5.18055 30.32C3.68721 29.6533 2.51388 28.72 1.66055 27.52C0.807214 26.32 0.380547 24.92 0.380547 23.32H5.26055C5.36721 24.52 5.83388 25.5067 6.66055 26.28C7.51388 27.0533 8.70055 27.44 10.2205 27.44C11.7939 27.44 13.0205 27.0667 13.9005 26.32C14.7805 25.5467 15.2205 24.56 15.2205 23.36C15.2205 22.4267 14.9405 21.6667 14.3805 21.08C13.8472 20.4933 13.1672 20.04 12.3405 19.72C11.5405 19.4 10.4205 19.0533 8.98055 18.68C7.16721 18.2 5.68721 17.72 4.54055 17.24C3.42055 16.7333 2.46055 15.96 1.66055 14.92C0.860547 13.88 0.460547 12.4933 0.460547 10.76C0.460547 9.16 0.860547 7.76 1.66055 6.56C2.46055 5.36 3.58055 4.44 5.02055 3.8C6.46055 3.16 8.12721 2.84 10.0205 2.84C12.7139 2.84 14.9139 3.52 16.6205 4.88C18.3539 6.21333 19.3139 8.05333 19.5005 10.4H14.4605C14.3805 9.38667 13.9005 8.52 13.0205 7.8C12.1405 7.08 10.9805 6.72 9.54055 6.72C8.23388 6.72 7.16721 7.05333 6.34055 7.72C5.51388 8.38667 5.10055 9.34666 5.10055 10.6C5.10055 11.4533 5.35388 12.16 5.86055 12.72C6.39388 13.2533 7.06055 13.68 7.86055 14C8.66055 14.32 9.75388 14.6667 11.1405 15.04C12.9805 15.5467 14.4739 16.0533 15.6205 16.56C16.7939 17.0667 17.7805 17.8533 18.5805 18.92C19.4072 19.96 19.8205 21.36 19.8205 23.12C19.8205 24.5333 19.4339 25.8667 18.6605 27.12C17.9139 28.3733 16.8072 29.3867 15.3405 30.16C13.9005 30.9067 12.1939 31.28 10.2205 31.28ZM44.6412 11.48C44.6412 12.8933 44.3078 14.2267 43.6412 15.48C42.9745 16.7333 41.9078 17.76 40.4412 18.56C38.9745 19.3333 37.0945 19.72 34.8012 19.72H29.7612V31H25.2012V3.2H34.8012C36.9345 3.2 38.7345 3.57333 40.2012 4.32C41.6945 5.04 42.8012 6.02666 43.5212 7.28C44.2678 8.53333 44.6412 9.93333 44.6412 11.48ZM34.8012 16C36.5345 16 37.8278 15.6133 38.6812 14.84C39.5345 14.04 39.9612 12.92 39.9612 11.48C39.9612 8.44 38.2412 6.92 34.8012 6.92H29.7612V16H34.8012ZM53.5502 6.88V15.04H63.1502V18.76H53.5502V27.28H64.3502V31H48.9902V3.16H64.3502V6.88H53.5502ZM68.4468 17.04C68.4468 14.32 69.0735 11.88 70.3268 9.72C71.6068 7.56 73.3268 5.88 75.4868 4.68C77.6735 3.45333 80.0601 2.84 82.6468 2.84C85.6068 2.84 88.2335 3.57333 90.5268 5.04C92.8468 6.48 94.5268 8.53333 95.5668 11.2H90.0868C89.3668 9.73333 88.3668 8.64 87.0868 7.92C85.8068 7.2 84.3268 6.84 82.6468 6.84C80.8068 6.84 79.1668 7.25333 77.7268 8.08C76.2868 8.90667 75.1535 10.0933 74.3268 11.64C73.5268 13.1867 73.1268 14.9867 73.1268 17.04C73.1268 19.0933 73.5268 20.8933 74.3268 22.44C75.1535 23.9867 76.2868 25.1867 77.7268 26.04C79.1668 26.8667 80.8068 27.28 82.6468 27.28C84.3268 27.28 85.8068 26.92 87.0868 26.2C88.3668 25.48 89.3668 24.3867 90.0868 22.92H95.5668C94.5268 25.5867 92.8468 27.64 90.5268 29.08C88.2335 30.52 85.6068 31.24 82.6468 31.24C80.0335 31.24 77.6468 30.64 75.4868 29.44C73.3268 28.2133 71.6068 26.52 70.3268 24.36C69.0735 22.2 68.4468 19.76 68.4468 17.04ZM108.17 22.9141C108.24 22.0703 108.311 21.1562 108.381 20.1719C108.451 19.1641 108.557 18.168 108.697 17.1836C108.861 16.1992 109.061 15.2617 109.295 14.3711C109.553 13.4805 109.881 12.6953 110.279 12.0156C110.701 11.3125 111.217 10.7617 111.826 10.3633C112.436 9.94141 113.174 9.74219 114.041 9.76562C114.627 9.76562 115.072 10.0117 115.377 10.5039C115.705 10.9961 115.928 11.5938 116.045 12.2969C116.186 13 116.256 13.7266 116.256 14.4766C116.279 15.2031 116.291 15.8008 116.291 16.2695C115.822 16.2695 115.436 16.0703 115.131 15.6719C114.826 15.25 114.592 14.7695 114.428 14.2305C114.264 13.6914 114.146 13.1641 114.076 12.6484L113.971 11.6289C113.947 11.6289 113.9 11.6289 113.83 11.6289C113.783 11.6055 113.748 11.5938 113.725 11.5938C113.326 11.5938 112.951 11.8164 112.6 12.2617C112.271 12.707 111.955 13.2812 111.65 13.9844C111.369 14.6641 111.123 15.4375 110.912 16.3047C110.701 17.1484 110.525 17.9805 110.385 18.8008C110.244 19.6211 110.127 20.3828 110.033 21.0859C109.963 21.7656 109.928 22.293 109.928 22.668C109.881 23.2773 109.881 23.9453 109.928 24.6719C109.975 25.3984 110.115 26.0781 110.35 26.7109C110.584 27.3438 110.912 27.8945 111.334 28.3633C111.756 28.8086 112.318 29.1133 113.021 29.2773C113.889 29.2773 114.592 29.1602 115.131 28.9258C115.67 28.6914 116.104 28.375 116.432 27.9766C116.783 27.5781 117.053 27.1328 117.24 26.6406C117.428 26.1484 117.604 25.6445 117.768 25.1289C117.955 24.5898 118.143 24.0625 118.33 23.5469C118.518 23.0312 118.787 22.5508 119.139 22.1055C119.42 22.0352 119.619 22.0469 119.736 22.1406C119.877 22.2109 119.971 22.3164 120.018 22.457C120.064 22.5977 120.088 22.7617 120.088 22.9492V23.3359C120.088 24.3203 119.924 25.2695 119.596 26.1836C119.268 27.0977 118.787 27.918 118.154 28.6445C117.521 29.3477 116.76 29.9219 115.869 30.3672C115.002 30.7891 114.006 31 112.881 31C111.943 31 111.158 30.707 110.525 30.1211C109.916 29.5117 109.436 28.7852 109.084 27.9414C108.756 27.0977 108.521 26.2188 108.381 25.3047C108.24 24.3672 108.17 23.5703 108.17 22.9141ZM122.197 26.1836C122.033 25.1055 121.951 24.0625 121.951 23.0547C121.951 22.0234 122.01 20.9805 122.127 19.9258C122.268 18.8711 122.455 17.7812 122.689 16.6562C122.947 15.5078 123.24 14.2773 123.568 12.9648C123.568 12.707 123.639 12.4727 123.779 12.2617C123.92 12.0273 124.107 11.8398 124.342 11.6992C124.576 11.5352 124.822 11.4062 125.08 11.3125C125.338 11.2188 125.584 11.1719 125.818 11.1719C126.334 11.1719 126.803 11.3359 127.225 11.6641C127.646 11.9922 128.021 12.3906 128.35 12.8594C128.701 13.3281 128.994 13.832 129.229 14.3711C129.486 14.8867 129.697 15.332 129.861 15.707C130.049 16.5273 130.178 17.4648 130.248 18.5195C130.342 19.5508 130.354 20.6055 130.283 21.6836C130.213 22.7617 130.049 23.8281 129.791 24.8828C129.533 25.9141 129.17 26.8633 128.701 27.7305C128.232 28.5977 127.623 29.3242 126.873 29.9102C126.146 30.4961 125.279 30.8594 124.271 31C123.732 31 123.322 30.8242 123.041 30.4727C122.76 30.0977 122.549 29.6523 122.408 29.1367C122.291 28.5977 122.221 28.0586 122.197 27.5195C122.197 26.9805 122.197 26.5352 122.197 26.1836ZM123.99 26.0781C123.99 26.3125 123.99 26.5352 123.99 26.7461C124.014 26.957 124.037 27.168 124.061 27.3789C124.107 27.5664 124.154 27.7773 124.201 28.0117C124.271 28.2227 124.354 28.4688 124.447 28.75H124.658C125.221 28.75 125.701 28.5625 126.1 28.1875C126.498 27.8125 126.838 27.332 127.119 26.7461C127.4 26.1367 127.635 25.4688 127.822 24.7422C128.01 23.9922 128.15 23.2656 128.244 22.5625C128.361 21.8359 128.432 21.168 128.455 20.5586C128.502 19.9258 128.525 19.4219 128.525 19.0469V18.3438C128.525 18.0391 128.514 17.6992 128.49 17.3242C128.467 16.9258 128.42 16.5273 128.35 16.1289C128.303 15.707 128.221 15.332 128.104 15.0039C127.986 14.6523 127.834 14.3711 127.646 14.1602C127.459 13.9492 127.213 13.8438 126.908 13.8438C126.393 13.6797 125.947 13.7148 125.572 13.9492C125.221 14.1836 124.928 14.582 124.693 15.1445C124.482 15.6836 124.318 16.3516 124.201 17.1484C124.084 17.9453 124.014 18.8242 123.99 19.7852C123.967 20.7461 123.955 21.7656 123.955 22.8438C123.979 23.9219 123.99 25 123.99 26.0781ZM132.568 29.207C132.732 28.1289 132.838 26.7812 132.885 25.1641C132.955 23.5469 132.979 21.8242 132.955 19.9961C132.955 18.168 132.92 16.2812 132.85 14.3359C132.779 12.3906 132.686 10.5508 132.568 8.81641C132.451 7.05859 132.311 5.48828 132.146 4.10547C132.006 2.72266 131.854 1.63281 131.689 0.835938C131.9 0.695312 132.076 0.589844 132.217 0.519531C132.381 0.425781 132.568 0.378906 132.779 0.378906C132.943 0.378906 133.084 0.414062 133.201 0.484375C133.318 0.53125 133.412 0.648437 133.482 0.835938C133.951 5.42969 134.268 10.0586 134.432 14.7227C134.619 19.3867 134.76 24.0273 134.854 28.6445C134.854 28.8555 134.854 29.1484 134.854 29.5234C134.854 29.875 134.842 30.0625 134.818 30.0859C134.49 30.25 134.197 30.332 133.939 30.332C133.682 30.3086 133.447 30.2383 133.236 30.1211C133.025 29.9805 132.861 29.8281 132.744 29.6641C132.627 29.5 132.568 29.3477 132.568 29.207ZM137.525 29.207C137.689 28.1289 137.795 26.7812 137.842 25.1641C137.912 23.5469 137.936 21.8242 137.912 19.9961C137.912 18.168 137.877 16.2812 137.807 14.3359C137.736 12.3906 137.643 10.5508 137.525 8.81641C137.408 7.05859 137.268 5.48828 137.104 4.10547C136.963 2.72266 136.811 1.63281 136.646 0.835938C136.857 0.695312 137.033 0.589844 137.174 0.519531C137.338 0.425781 137.525 0.378906 137.736 0.378906C137.9 0.378906 138.041 0.414062 138.158 0.484375C138.275 0.53125 138.369 0.648437 138.439 0.835938C138.908 5.42969 139.225 10.0586 139.389 14.7227C139.576 19.3867 139.717 24.0273 139.811 28.6445C139.811 28.8555 139.811 29.1484 139.811 29.5234C139.811 29.875 139.799 30.0625 139.775 30.0859C139.447 30.25 139.154 30.332 138.896 30.332C138.639 30.3086 138.404 30.2383 138.193 30.1211C137.982 29.9805 137.818 29.8281 137.701 29.6641C137.584 29.5 137.525 29.3477 137.525 29.207ZM151.729 30.0859C151.611 29.4766 151.506 28.75 151.412 27.9062C151.342 27.0391 151.26 26.1719 151.166 25.3047C151.072 24.4141 150.955 23.582 150.814 22.8086C150.697 22.0352 150.51 21.4023 150.252 20.9102C149.057 23.3477 148.002 25.2695 147.088 26.6758C146.174 28.0586 145.365 29.0547 144.662 29.6641C143.982 30.25 143.408 30.5312 142.939 30.5078C142.471 30.4844 142.084 30.2734 141.779 29.875C141.475 29.4766 141.252 28.9727 141.111 28.3633C140.994 27.7305 140.912 27.1445 140.865 26.6055C140.865 26.0898 140.982 25.3633 141.217 24.4258C141.451 23.4883 141.768 22.4688 142.166 21.3672C142.564 20.2422 143.033 19.1055 143.572 17.957C144.135 16.8086 144.732 15.7656 145.365 14.8281C145.998 13.8906 146.654 13.1172 147.334 12.5078C148.014 11.8984 148.693 11.5938 149.373 11.5938C150.381 11.4297 151.119 11.6523 151.588 12.2617C152.08 12.8477 152.174 13.8438 151.869 15.25C151.869 16.7969 151.928 18.1211 152.045 19.2227C152.186 20.3242 152.326 21.3789 152.467 22.3867C152.631 23.3945 152.771 24.4492 152.889 25.5508C153.029 26.6523 153.1 27.9766 153.1 29.5234C153.1 29.8047 153.064 30.0508 152.994 30.2617C152.947 30.4492 152.666 30.543 152.15 30.543C152.08 30.543 151.986 30.4844 151.869 30.3672C151.775 30.25 151.729 30.1562 151.729 30.0859ZM149.83 14.3711C149.572 13.9961 149.221 13.9609 148.775 14.2656C148.33 14.5703 147.861 15.0742 147.369 15.7773C146.877 16.4805 146.373 17.3242 145.857 18.3086C145.342 19.293 144.861 20.2891 144.416 21.2969C143.971 22.3047 143.584 23.2656 143.256 24.1797C142.928 25.0703 142.705 25.8086 142.588 26.3945C142.588 27.2383 142.717 27.7188 142.975 27.8359C143.232 27.9297 143.549 27.7891 143.924 27.4141C144.299 27.0391 144.721 26.5 145.189 25.7969C145.682 25.0938 146.15 24.3438 146.596 23.5469C147.064 22.75 147.498 21.9766 147.896 21.2266C148.318 20.4766 148.646 19.8672 148.881 19.3984C149.092 18.9062 149.256 18.4492 149.373 18.0273C149.49 17.6055 149.584 17.207 149.654 16.832C149.748 16.4336 149.795 16.0352 149.795 15.6367C149.818 15.2383 149.83 14.8164 149.83 14.3711ZM155.49 30.7539C155.373 28.9023 155.326 26.9336 155.35 24.8477C155.396 22.7617 155.455 20.5117 155.525 18.0977C155.596 15.6836 155.654 13.0703 155.701 10.2578C155.771 7.42188 155.783 4.32812 155.736 0.976562C155.994 0.976562 156.264 0.964844 156.545 0.941406C156.826 0.894531 157.072 0.882813 157.283 0.90625C157.518 0.929687 157.705 1 157.846 1.11719C158.01 1.23438 158.092 1.44531 158.092 1.75C158.092 2.61719 158.057 3.625 157.986 4.77344C157.939 5.89844 157.869 7.14062 157.775 8.5C157.682 9.83594 157.6 11.2773 157.529 12.8242C157.482 14.3711 157.459 16 157.459 17.7109C158.279 16.6328 159.041 15.7539 159.744 15.0742C160.447 14.3945 161.115 13.8555 161.748 13.457C162.381 13.0352 163.002 12.7773 163.611 12.6836C164.221 12.5664 164.818 12.5312 165.404 12.5781C166.084 12.5781 166.635 12.7656 167.057 13.1406C167.502 13.5156 167.842 13.9844 168.076 14.5469C168.311 15.1094 168.475 15.7422 168.568 16.4453C168.662 17.125 168.709 17.793 168.709 18.4492C168.709 18.918 168.674 19.4219 168.604 19.9609C168.557 20.4766 168.428 21.0508 168.217 21.6836C168.006 22.3164 167.678 22.9727 167.232 23.6523C166.811 24.3086 166.213 25.0117 165.439 25.7617C164.666 26.5117 163.682 27.2852 162.486 28.082C161.314 28.8789 159.885 29.6992 158.197 30.543C157.635 30.707 157.178 30.8125 156.826 30.8594C156.498 30.8828 156.229 30.8945 156.018 30.8945C155.83 30.8711 155.689 30.8477 155.596 30.8242C155.525 30.8008 155.49 30.7773 155.49 30.7539ZM157.002 28.6445C157.119 28.5742 157.436 28.4219 157.951 28.1875C158.467 27.9297 159.076 27.6016 159.779 27.2031C160.482 26.8047 161.244 26.3242 162.064 25.7617C162.885 25.1992 163.635 24.543 164.314 23.793C165.018 23.043 165.615 22.1992 166.107 21.2617C166.6 20.3242 166.893 19.293 166.986 18.168C166.986 17.8398 166.939 17.4883 166.846 17.1133C166.752 16.7383 166.6 16.3867 166.389 16.0586C166.201 15.7305 165.955 15.4609 165.65 15.25C165.346 15.0156 164.982 14.8984 164.561 14.8984C163.693 14.8984 162.873 15.1328 162.1 15.6016C161.35 16.0703 160.658 16.6562 160.025 17.3594C159.393 18.0625 158.83 18.8242 158.338 19.6445C157.846 20.4414 157.447 21.1797 157.143 21.8594L157.002 28.6445Z" fill="white"/>
</svg>
