<svg width="71" height="47" viewBox="0 0 71 47" fill="none" xmlns="http://www.w3.org/2000/svg">
<path d="M18.6937 16.469C20.2953 15.1212 22.1483 14.035 24.1721 13.2655C26.4618 12.3949 28.9206 11.9484 31.4054 11.9545L32.9091 11.9583V10.4545V3V1.5H31.4091C23.516 1.5 15.9231 4.37849 10.3062 9.53707C4.685 14.6996 1.5 21.7301 1.5 29.0909V29.117L1.50091 29.1431L1.56496 30.9814C1.57074 33.8787 2.50953 36.6981 4.24589 39.0847C5.98626 41.4768 8.446 43.3231 11.3003 44.4089C14.1541 45.4946 17.2879 45.777 20.3102 45.2249C23.3327 44.6728 26.125 43.3073 28.3282 41.2838C30.5328 39.2592 32.0506 36.6636 32.6671 33.8171C33.2839 30.9692 32.9659 28.019 31.7601 25.3456C30.5553 22.6742 28.5247 20.4118 25.9456 18.8292C23.7666 17.492 21.2727 16.6864 18.6937 16.469ZM55.2955 16.4056C56.8796 15.0871 58.7061 14.0229 60.698 13.2655C62.9878 12.3949 65.4466 11.9484 67.9314 11.9545L69.4351 11.9583V10.4545V3V1.5H67.9351C60.0419 1.5 52.4491 4.37849 46.8322 9.53707C41.211 14.6996 38.026 21.7301 38.026 29.0909V29.117L38.0269 29.1431L38.0909 30.9815C38.0967 33.8787 39.0355 36.6981 40.7719 39.0847C42.5122 41.4768 44.972 43.3231 47.8263 44.4089C50.68 45.4946 53.8139 45.777 56.8362 45.2249C59.8587 44.6728 62.651 43.3073 64.8542 41.2838C67.0588 39.2592 68.5766 36.6636 69.1931 33.8171C69.8099 30.9692 69.4919 28.019 68.2861 25.3456C67.0813 22.6742 65.0507 20.4118 62.4716 18.8292C60.3139 17.5051 57.8475 16.7022 55.2955 16.4755V16.4056Z" fill="#F4BE4F" stroke="white" stroke-width="3"/>
</svg>
