<svg width="35" height="33" viewBox="0 0 35 33" fill="none" xmlns="http://www.w3.org/2000/svg">
<g clip-path="url(#clip0_574_696)">
<path d="M17.5002 -0.0350342C7.83035 -0.0350342 -0.0380859 7.38172 -0.0380859 16.5C-0.0380859 25.6183 7.83035 33.0351 17.5002 33.0351C27.17 33.0351 35.0385 25.6183 35.0385 16.5C35.0385 7.38172 27.17 -0.0350342 17.5002 -0.0350342ZM17.5002 31.9337C8.47457 31.9337 1.13223 25.0099 1.13223 16.5C1.13223 7.99015 8.47457 1.06634 17.5002 1.06634C26.5258 1.06634 33.8682 7.99015 33.8682 16.5C33.8682 25.0099 26.5258 31.9337 17.5002 31.9337Z" fill="#1C303D"/>
<path d="M27.1189 11.3912C27.2402 11.1795 27.3402 10.9575 27.4175 10.7281C27.4533 10.6217 27.454 10.5076 27.4195 10.4008C27.3851 10.2941 27.3171 10.1996 27.2246 10.13C27.1321 10.0604 27.0193 10.0189 26.9012 10.011C26.7832 10.0031 26.6653 10.0291 26.5632 10.0857C26.0028 10.3996 25.3961 10.6335 24.7629 10.7797C23.9943 10.1256 22.9961 9.76305 21.9607 9.76184C21.3983 9.76225 20.8416 9.86974 20.3243 10.0779C19.8069 10.286 19.3394 10.5905 18.9499 10.9731C18.5603 11.3557 18.2567 11.8085 18.0573 12.3044C17.8578 12.8003 17.7667 13.3291 17.7892 13.859C15.3294 13.567 13.0831 12.3934 11.5165 10.5817C11.4565 10.513 11.3798 10.4591 11.2929 10.4244C11.206 10.3897 11.1116 10.3752 11.0175 10.3823C10.9235 10.3894 10.8326 10.4178 10.7527 10.4651C10.6728 10.5124 10.6061 10.5771 10.5584 10.6539C10.1997 11.2344 10.0047 11.8919 9.99206 12.5636C9.97942 13.2354 10.1496 13.899 10.4862 14.4912C10.4036 14.5043 10.3243 14.5316 10.2522 14.5716C10.1637 14.6248 10.0909 14.6981 10.0404 14.7848C9.98998 14.8715 9.96349 14.9687 9.9634 15.0676C9.9634 16.2381 10.5157 17.3127 11.4061 18.0428L11.3678 18.0789C11.3006 18.1506 11.2543 18.2375 11.2336 18.3312C11.2129 18.4249 11.2184 18.522 11.2497 18.6131C11.4353 19.1591 11.7453 19.6604 12.1579 20.0816C12.5705 20.5029 13.0758 20.8341 13.6384 21.052C12.483 21.5834 11.1899 21.7907 9.91309 21.6491C9.78185 21.6364 9.64987 21.6652 9.53785 21.7309C9.42582 21.7966 9.34007 21.8955 9.29403 22.0121C9.24982 22.1295 9.24899 22.2576 9.29167 22.3755C9.33436 22.4934 9.41806 22.5943 9.52919 22.6617C11.265 23.7121 13.2843 24.2702 15.3468 24.2695C22.1062 24.2695 26.1465 19.0926 26.1465 14.0879L26.1454 13.9188C26.8005 13.4366 27.3695 12.8587 27.8309 12.2069C27.9008 12.1084 27.9351 11.9913 27.9289 11.8729C27.9227 11.7545 27.8762 11.6412 27.7963 11.5497C27.7164 11.4582 27.6074 11.3934 27.4854 11.3648C27.3634 11.3363 27.2349 11.3455 27.1189 11.3912ZM25.2103 13.2011C25.1309 13.2549 25.0671 13.3266 25.0247 13.4096C24.9823 13.4927 24.9626 13.5844 24.9675 13.6765C24.974 13.8126 24.9773 13.9508 24.9773 14.0869C24.9773 18.5502 21.3756 23.1671 15.3479 23.1671C14.2729 23.1675 13.2054 22.9974 12.1903 22.6638C13.4061 22.4441 14.5482 21.9525 15.5207 21.2304C15.6154 21.16 15.6847 21.0638 15.7192 20.9548C15.7536 20.8459 15.7516 20.7296 15.7133 20.6218C15.675 20.5141 15.6023 20.4201 15.5052 20.3527C15.4081 20.2854 15.2913 20.2479 15.1707 20.2455C14.6992 20.237 14.2363 20.1242 13.8194 19.916C13.4026 19.7079 13.0435 19.4103 12.7711 19.0472C13.0478 19.0297 13.319 18.9864 13.5826 18.9193C13.7102 18.8871 13.8224 18.8151 13.901 18.7151C13.9796 18.615 14.0199 18.4928 14.0153 18.3683C14.0108 18.2439 13.9616 18.1246 13.8759 18.0299C13.7901 17.9352 13.6729 17.8706 13.5432 17.8468C13.0106 17.7447 12.5175 17.5079 12.1165 17.1619C11.7156 16.8158 11.422 16.3735 11.2672 15.8823C11.5581 15.9514 11.8567 15.9916 12.1553 16.0009C12.4123 15.9999 12.6507 15.8514 12.7306 15.6183C12.8104 15.3852 12.7164 15.1285 12.4987 14.9923C11.9841 14.6691 11.5878 14.2039 11.3641 13.6603C11.1403 13.1167 11.1 12.5213 11.2486 11.9553C13.1484 13.7933 15.7139 14.8878 18.4323 15.0202C18.6248 15.0212 18.7932 14.9562 18.9103 14.8232C19.0273 14.6902 19.0722 14.5138 19.0306 14.3447C18.881 13.7373 18.9479 13.1003 19.221 12.5324C19.494 11.9645 19.958 11.4972 20.5411 11.203C21.1242 10.9087 21.7939 10.8038 22.4465 10.9046C23.0992 11.0054 23.6984 11.3062 24.1515 11.7604C24.2194 11.8287 24.3047 11.8796 24.3992 11.9083C24.4937 11.937 24.5944 11.9425 24.6918 11.9244C24.8723 11.8903 25.0506 11.8512 25.2267 11.8058C25.1473 11.8618 25.0648 11.9138 24.9795 11.9615C24.8661 12.027 24.7797 12.127 24.7346 12.245C24.6896 12.363 24.6884 12.4919 24.7315 12.6106C24.7745 12.7292 24.8592 12.8305 24.9715 12.8977C25.0838 12.9649 25.217 12.9941 25.3492 12.9804L25.5482 12.9567C25.4386 13.0418 25.3259 13.1233 25.2103 13.2011Z" fill="#1C303D"/>
</g>
<defs>
<clipPath id="clip0_574_696">
<rect width="35" height="33" fill="white"/>
</clipPath>
</defs>
</svg>
